<mxfile host="65bd71144e" pages="2">
    <diagram id="ktG0K0J7P0G1YxKLECUj" name="componentes">
        <mxGraphModel dx="3020" dy="1850" grid="1" gridSize="10" guides="1" tooltips="1" connect="1" arrows="1" fold="1" page="1" pageScale="1" pageWidth="850" pageHeight="1100" math="0" shadow="0">
            <root>
                <mxCell id="E2yFMoDqiKqBGXm1PeEA-0"/>
                <mxCell id="E2yFMoDqiKqBGXm1PeEA-1" parent="E2yFMoDqiKqBGXm1PeEA-0"/>
                <mxCell id="E2yFMoDqiKqBGXm1PeEA-5" value="Consumidores" style="html=1;dropTarget=0;rounded=0;" parent="E2yFMoDqiKqBGXm1PeEA-1" vertex="1">
                    <mxGeometry x="-950" y="395" width="120" height="70" as="geometry"/>
                </mxCell>
                <mxCell id="E2yFMoDqiKqBGXm1PeEA-6" value="" style="shape=module;jettyWidth=8;jettyHeight=4;rounded=0;" parent="E2yFMoDqiKqBGXm1PeEA-5" vertex="1">
                    <mxGeometry x="1" width="20" height="20" relative="1" as="geometry">
                        <mxPoint x="-27" y="7" as="offset"/>
                    </mxGeometry>
                </mxCell>
                <mxCell id="E2yFMoDqiKqBGXm1PeEA-9" value="       EKS" style="fillColor=none;strokeColor=#D86613;verticalAlign=top;fontStyle=0;fontColor=#D86613;align=left;rounded=0;spacingLeft=10;" parent="E2yFMoDqiKqBGXm1PeEA-1" vertex="1">
                    <mxGeometry x="-350" width="770" height="860" as="geometry"/>
                </mxCell>
                <mxCell id="E2yFMoDqiKqBGXm1PeEA-10" value="" style="points=[[0,0,0],[0.25,0,0],[0.5,0,0],[0.75,0,0],[1,0,0],[0,1,0],[0.25,1,0],[0.5,1,0],[0.75,1,0],[1,1,0],[0,0.25,0],[0,0.5,0],[0,0.75,0],[1,0.25,0],[1,0.5,0],[1,0.75,0]];outlineConnect=0;fontColor=#232F3E;gradientColor=#F78E04;gradientDirection=north;fillColor=#D05C17;strokeColor=#ffffff;dashed=0;verticalLabelPosition=bottom;verticalAlign=top;align=center;html=1;fontSize=12;fontStyle=0;aspect=fixed;shape=mxgraph.aws4.resourceIcon;resIcon=mxgraph.aws4.eks;rounded=0;" parent="E2yFMoDqiKqBGXm1PeEA-1" vertex="1">
                    <mxGeometry x="-350" width="30" height="30" as="geometry"/>
                </mxCell>
                <mxCell id="E2yFMoDqiKqBGXm1PeEA-11" value="Apis" style="fillColor=none;strokeColor=#000000;verticalAlign=top;fontStyle=0;fontColor=#FFFFFF;align=center;rounded=0;labelBorderColor=none;labelBackgroundColor=none;fontFamily=Helvetica;" parent="E2yFMoDqiKqBGXm1PeEA-1" vertex="1">
                    <mxGeometry x="-300" y="70" width="680" height="710" as="geometry"/>
                </mxCell>
                <mxCell id="E2yFMoDqiKqBGXm1PeEA-16" value="&lt;font style=&quot;font-size: 15px;&quot;&gt;&lt;br&gt;&lt;/font&gt;&lt;div style=&quot;text-align: left; font-size: 15px;&quot;&gt;&lt;span style=&quot;background-color: initial;&quot;&gt;&lt;font style=&quot;font-size: 15px;&quot;&gt;Client Central Information v_1.0.0&lt;/font&gt;&lt;/span&gt;&lt;/div&gt;" style="html=1;dropTarget=0;rounded=0;strokeWidth=2;fillColor=none;strokeColor=#D86613;align=center;" parent="E2yFMoDqiKqBGXm1PeEA-1" vertex="1">
                    <mxGeometry x="-160" y="140" width="460" height="80" as="geometry"/>
                </mxCell>
                <mxCell id="E2yFMoDqiKqBGXm1PeEA-17" value="" style="shape=module;jettyWidth=8;jettyHeight=4;rounded=0;strokeColor=#D86613;" parent="E2yFMoDqiKqBGXm1PeEA-16" vertex="1">
                    <mxGeometry x="1" width="20" height="20" relative="1" as="geometry">
                        <mxPoint x="-27" y="7" as="offset"/>
                    </mxGeometry>
                </mxCell>
                <mxCell id="E2yFMoDqiKqBGXm1PeEA-18" value="" style="rounded=0;orthogonalLoop=1;jettySize=auto;html=1;endArrow=classicThin;endFill=1;endSize=6;strokeWidth=1;fontColor=#000000;startArrow=none;startFill=1;entryX=1;entryY=0.5;entryDx=0;entryDy=0;exitX=0;exitY=0.5;exitDx=0;exitDy=0;" parent="E2yFMoDqiKqBGXm1PeEA-1" target="36" edge="1" source="126">
                    <mxGeometry relative="1" as="geometry">
                        <mxPoint x="450" y="280" as="sourcePoint"/>
                        <mxPoint x="20" y="310" as="targetPoint"/>
                        <Array as="points"/>
                    </mxGeometry>
                </mxCell>
                <mxCell id="lkQI1Zg8QQjyjgj-IAb8-2" value="&lt;br&gt;&lt;div style=&quot;text-align: left; font-size: 15px;&quot;&gt;Client Central Management v_1.0.0&lt;br&gt;&lt;/div&gt;" style="html=1;dropTarget=0;rounded=0;strokeWidth=2;fillColor=none;strokeColor=#D86613;align=center;" parent="E2yFMoDqiKqBGXm1PeEA-1" vertex="1">
                    <mxGeometry x="-160" y="240" width="460" height="80" as="geometry"/>
                </mxCell>
                <mxCell id="lkQI1Zg8QQjyjgj-IAb8-3" value="" style="shape=module;jettyWidth=8;jettyHeight=4;rounded=0;strokeColor=#D86613;" parent="lkQI1Zg8QQjyjgj-IAb8-2" vertex="1">
                    <mxGeometry x="1" width="20" height="20" relative="1" as="geometry">
                        <mxPoint x="-27" y="7" as="offset"/>
                    </mxGeometry>
                </mxCell>
                <mxCell id="0" style="edgeStyle=none;html=1;startArrow=classicThin;startFill=1;" parent="E2yFMoDqiKqBGXm1PeEA-1" edge="1" source="15">
                    <mxGeometry relative="1" as="geometry">
                        <Array as="points"/>
                        <mxPoint x="-500" y="313.5" as="sourcePoint"/>
                        <mxPoint x="-360" y="419" as="targetPoint"/>
                    </mxGeometry>
                </mxCell>
                <mxCell id="2" style="html=1;entryX=1.028;entryY=0.34;entryDx=0;entryDy=0;fontColor=#4D27AA;rounded=0;startArrow=none;startFill=1;entryPerimeter=0;verticalAlign=bottom;exitX=0;exitY=0.5;exitDx=0;exitDy=0;" parent="E2yFMoDqiKqBGXm1PeEA-1" source="147" target="E2yFMoDqiKqBGXm1PeEA-5" edge="1">
                    <mxGeometry relative="1" as="geometry">
                        <Array as="points"/>
                        <mxPoint x="-750" y="419" as="sourcePoint"/>
                        <mxPoint x="-675" y="-40" as="targetPoint"/>
                    </mxGeometry>
                </mxCell>
                <mxCell id="15" value="" style="sketch=0;outlineConnect=0;fontColor=#232F3E;gradientColor=none;fillColor=#4D27AA;strokeColor=none;dashed=0;verticalLabelPosition=bottom;verticalAlign=top;align=center;html=1;fontSize=12;fontStyle=0;aspect=fixed;pointerEvents=1;shape=mxgraph.aws4.network_load_balancer;" vertex="1" parent="E2yFMoDqiKqBGXm1PeEA-1">
                    <mxGeometry x="-600" y="380" width="78" height="78" as="geometry"/>
                </mxCell>
                <mxCell id="20" value="&lt;br style=&quot;font-size: 15px;&quot;&gt;&lt;div style=&quot;text-align: left; font-size: 15px;&quot;&gt;&lt;span style=&quot;background-color: initial; font-size: 15px;&quot;&gt;Product Information v_1.0.0&lt;/span&gt;&lt;/div&gt;" style="html=1;dropTarget=0;rounded=0;strokeWidth=2;fillColor=none;strokeColor=#D86613;align=center;fontSize=15;" vertex="1" parent="E2yFMoDqiKqBGXm1PeEA-1">
                    <mxGeometry x="-160" y="450" width="460" height="80" as="geometry"/>
                </mxCell>
                <mxCell id="21" value="" style="shape=module;jettyWidth=8;jettyHeight=4;rounded=0;strokeColor=#D86613;" vertex="1" parent="20">
                    <mxGeometry x="1" width="20" height="20" relative="1" as="geometry">
                        <mxPoint x="-27" y="7" as="offset"/>
                    </mxGeometry>
                </mxCell>
                <mxCell id="30" value="&lt;br style=&quot;font-size: 15px;&quot;&gt;&lt;div style=&quot;text-align: left; font-size: 15px;&quot;&gt;&lt;span style=&quot;background-color: initial; font-size: 15px;&quot;&gt;Product Management v_1.0.0&lt;/span&gt;&lt;/div&gt;" style="html=1;dropTarget=0;rounded=0;strokeWidth=2;fillColor=none;strokeColor=#D86613;align=center;fontSize=15;" vertex="1" parent="E2yFMoDqiKqBGXm1PeEA-1">
                    <mxGeometry x="-160" y="550" width="460" height="80" as="geometry"/>
                </mxCell>
                <mxCell id="31" value="" style="shape=module;jettyWidth=8;jettyHeight=4;rounded=0;strokeColor=#D86613;" vertex="1" parent="30">
                    <mxGeometry x="1" width="20" height="20" relative="1" as="geometry">
                        <mxPoint x="-27" y="7" as="offset"/>
                    </mxGeometry>
                </mxCell>
                <mxCell id="34" value="&lt;br style=&quot;font-size: 15px;&quot;&gt;&lt;div style=&quot;text-align: left; font-size: 15px;&quot;&gt;&lt;span style=&quot;background-color: initial; font-size: 15px;&quot;&gt;User Central Management v_1.0.0&lt;/span&gt;&lt;/div&gt;" style="html=1;dropTarget=0;rounded=0;strokeWidth=2;fillColor=none;strokeColor=#D86613;align=center;fontSize=15;" vertex="1" parent="E2yFMoDqiKqBGXm1PeEA-1">
                    <mxGeometry x="-160" y="650" width="460" height="80" as="geometry"/>
                </mxCell>
                <mxCell id="35" value="" style="shape=module;jettyWidth=8;jettyHeight=4;rounded=0;strokeColor=#D86613;" vertex="1" parent="34">
                    <mxGeometry x="1" width="20" height="20" relative="1" as="geometry">
                        <mxPoint x="-27" y="7" as="offset"/>
                    </mxGeometry>
                </mxCell>
                <mxCell id="36" value="&lt;br style=&quot;font-size: 15px;&quot;&gt;&lt;div style=&quot;text-align: left; font-size: 15px;&quot;&gt;&lt;span style=&quot;background-color: initial; font-size: 15px;&quot;&gt;Find Options Information v_1.0.0&lt;/span&gt;&lt;/div&gt;" style="html=1;dropTarget=0;rounded=0;strokeWidth=2;fillColor=none;strokeColor=#D86613;align=center;fontSize=15;" vertex="1" parent="E2yFMoDqiKqBGXm1PeEA-1">
                    <mxGeometry x="-160" y="345" width="462.5" height="80" as="geometry"/>
                </mxCell>
                <mxCell id="37" value="" style="shape=module;jettyWidth=8;jettyHeight=4;rounded=0;strokeColor=#D86613;" vertex="1" parent="36">
                    <mxGeometry x="1" width="20" height="20" relative="1" as="geometry">
                        <mxPoint x="-27" y="7" as="offset"/>
                    </mxGeometry>
                </mxCell>
                <mxCell id="43" value="&lt;span style=&quot;color: rgb(255, 255, 255); font-family: Helvetica; font-size: 11px; font-style: normal; font-variant-ligatures: normal; font-variant-caps: normal; font-weight: 400; letter-spacing: normal; orphans: 2; text-align: center; text-indent: 0px; text-transform: none; widows: 2; word-spacing: 0px; -webkit-text-stroke-width: 0px; background-color: rgb(24, 20, 29); text-decoration-thickness: initial; text-decoration-style: initial; text-decoration-color: initial; float: none; display: inline !important;&quot;&gt;Api connect&lt;/span&gt;" style="text;whiteSpace=wrap;html=1;fontSize=15;fontFamily=Helvetica;fontColor=#FFFFFF;" vertex="1" parent="E2yFMoDqiKqBGXm1PeEA-1">
                    <mxGeometry x="-300" y="137.5" width="100" height="40" as="geometry"/>
                </mxCell>
                <UserObject label="&lt;font style=&quot;font-size: 15px;&quot;&gt;«FindOptions»&lt;/font&gt;&lt;br&gt;&lt;br&gt;&lt;div style=&quot;text-align: left;&quot;&gt;/retrieve&lt;/div&gt;&lt;div style=&quot;text-align: left;&quot;&gt;/retrieveList&lt;/div&gt;&lt;div style=&quot;text-align: left&quot;&gt;&lt;br&gt;&lt;/div&gt;" linkTarget="_blank" id="E2yFMoDqiKqBGXm1PeEA-23">
                    <mxCell style="html=1;dropTarget=0;rounded=0;" parent="E2yFMoDqiKqBGXm1PeEA-1" vertex="1">
                        <mxGeometry x="710" y="320" width="190" height="130" as="geometry"/>
                    </mxCell>
                </UserObject>
                <mxCell id="E2yFMoDqiKqBGXm1PeEA-24" value="" style="shape=module;jettyWidth=8;jettyHeight=4;rounded=0;" parent="E2yFMoDqiKqBGXm1PeEA-23" vertex="1">
                    <mxGeometry x="1" width="20" height="20" relative="1" as="geometry">
                        <mxPoint x="-27" y="7" as="offset"/>
                    </mxGeometry>
                </mxCell>
                <mxCell id="11" style="edgeStyle=none;html=1;exitX=0;exitY=0.5;exitDx=0;exitDy=0;entryX=-0.016;entryY=0.554;entryDx=0;entryDy=0;entryPerimeter=0;" parent="E2yFMoDqiKqBGXm1PeEA-1" source="E2yFMoDqiKqBGXm1PeEA-23" target="E2yFMoDqiKqBGXm1PeEA-23" edge="1">
                    <mxGeometry relative="1" as="geometry"/>
                </mxCell>
                <mxCell id="47" value="" style="points=[[0,0,0],[0.25,0,0],[0.5,0,0],[0.75,0,0],[1,0,0],[0,1,0],[0.25,1,0],[0.5,1,0],[0.75,1,0],[1,1,0],[0,0.25,0],[0,0.5,0],[0,0.75,0],[1,0.25,0],[1,0.5,0],[1,0.75,0]];outlineConnect=0;fontColor=#232F3E;gradientColor=#F78E04;gradientDirection=north;fillColor=#D05C17;strokeColor=#ffffff;dashed=0;verticalLabelPosition=bottom;verticalAlign=top;align=center;html=1;fontSize=12;fontStyle=0;aspect=fixed;shape=mxgraph.aws4.resourceIcon;resIcon=mxgraph.aws4.eks;rounded=0;" vertex="1" parent="E2yFMoDqiKqBGXm1PeEA-1">
                    <mxGeometry x="615" width="30" height="30" as="geometry"/>
                </mxCell>
                <UserObject label="&lt;font style=&quot;font-size: 15px;&quot;&gt;«Products»&lt;/font&gt;&lt;br&gt;&lt;br&gt;&lt;div style=&quot;text-align: left;&quot;&gt;/retrieve&lt;/div&gt;&lt;div style=&quot;text-align: left;&quot;&gt;/retrieveList&lt;/div&gt;&lt;div style=&quot;text-align: left;&quot;&gt;/create&lt;/div&gt;&lt;div style=&quot;text-align: left;&quot;&gt;/modify&lt;/div&gt;&lt;div style=&quot;text-align: left;&quot;&gt;/delete&lt;/div&gt;&lt;div style=&quot;text-align: left&quot;&gt;&lt;br&gt;&lt;/div&gt;" linkTarget="_blank" id="50">
                    <mxCell style="html=1;dropTarget=0;rounded=0;" vertex="1" parent="E2yFMoDqiKqBGXm1PeEA-1">
                        <mxGeometry x="1040" y="500" width="190" height="130" as="geometry"/>
                    </mxCell>
                </UserObject>
                <mxCell id="51" value="" style="shape=module;jettyWidth=8;jettyHeight=4;rounded=0;" vertex="1" parent="50">
                    <mxGeometry x="1" width="20" height="20" relative="1" as="geometry">
                        <mxPoint x="-27" y="7" as="offset"/>
                    </mxGeometry>
                </mxCell>
                <UserObject label="&lt;font style=&quot;font-size: 15px;&quot;&gt;«User»&lt;/font&gt;&lt;br&gt;&lt;br&gt;&lt;div style=&quot;text-align: left;&quot;&gt;/access&lt;/div&gt;&lt;div style=&quot;text-align: left;&quot;&gt;/validate&lt;/div&gt;&lt;div style=&quot;text-align: left;&quot;&gt;/create&lt;/div&gt;&lt;div style=&quot;text-align: left;&quot;&gt;/modify&lt;/div&gt;&lt;div style=&quot;text-align: left;&quot;&gt;/delete&lt;/div&gt;&lt;div style=&quot;text-align: left&quot;&gt;&lt;br&gt;&lt;/div&gt;" linkTarget="_blank" id="52">
                    <mxCell style="html=1;dropTarget=0;rounded=0;" vertex="1" parent="E2yFMoDqiKqBGXm1PeEA-1">
                        <mxGeometry x="720" y="640" width="190" height="130" as="geometry"/>
                    </mxCell>
                </UserObject>
                <mxCell id="53" value="" style="shape=module;jettyWidth=8;jettyHeight=4;rounded=0;" vertex="1" parent="52">
                    <mxGeometry x="1" width="20" height="20" relative="1" as="geometry">
                        <mxPoint x="-27" y="7" as="offset"/>
                    </mxGeometry>
                </mxCell>
                <UserObject label="&lt;font style=&quot;font-size: 15px;&quot;&gt;«Clients»&lt;/font&gt;&lt;br&gt;&lt;br&gt;&lt;div style=&quot;text-align: left;&quot;&gt;/retrieve&lt;/div&gt;&lt;div style=&quot;text-align: left;&quot;&gt;/retrieveList&lt;/div&gt;&lt;div style=&quot;text-align: left;&quot;&gt;/create&lt;/div&gt;&lt;div style=&quot;text-align: left;&quot;&gt;/modify&lt;/div&gt;&lt;div style=&quot;text-align: left&quot;&gt;&lt;br&gt;&lt;/div&gt;" linkTarget="_blank" id="54">
                    <mxCell style="html=1;dropTarget=0;rounded=0;" vertex="1" parent="E2yFMoDqiKqBGXm1PeEA-1">
                        <mxGeometry x="1040" y="70" width="190" height="130" as="geometry"/>
                    </mxCell>
                </UserObject>
                <mxCell id="55" value="" style="shape=module;jettyWidth=8;jettyHeight=4;rounded=0;" vertex="1" parent="54">
                    <mxGeometry x="1" width="20" height="20" relative="1" as="geometry">
                        <mxPoint x="-27" y="7" as="offset"/>
                    </mxGeometry>
                </mxCell>
                <mxCell id="56" value="" style="rounded=0;orthogonalLoop=1;jettySize=auto;html=1;endArrow=classicThin;endFill=1;endSize=6;strokeWidth=1;fontColor=#000000;startArrow=none;startFill=1;exitX=0;exitY=0.5;exitDx=0;exitDy=0;entryX=0.75;entryY=0;entryDx=0;entryDy=0;" edge="1" parent="E2yFMoDqiKqBGXm1PeEA-1" source="135" target="E2yFMoDqiKqBGXm1PeEA-23">
                    <mxGeometry relative="1" as="geometry">
                        <mxPoint x="520" y="160" as="sourcePoint"/>
                        <mxPoint x="760" y="350" as="targetPoint"/>
                        <Array as="points">
                            <mxPoint x="853" y="165"/>
                            <mxPoint x="853" y="210"/>
                        </Array>
                    </mxGeometry>
                </mxCell>
                <mxCell id="62" value="" style="rounded=0;orthogonalLoop=1;jettySize=auto;html=1;endArrow=classicThin;endFill=1;endSize=6;strokeWidth=1;fontColor=#000000;startArrow=classicThin;startFill=1;entryX=0;entryY=0.154;entryDx=0;entryDy=0;entryPerimeter=0;" edge="1" parent="E2yFMoDqiKqBGXm1PeEA-1" target="50">
                    <mxGeometry relative="1" as="geometry">
                        <mxPoint x="850" y="450" as="sourcePoint"/>
                        <mxPoint x="580" y="580" as="targetPoint"/>
                        <Array as="points">
                            <mxPoint x="850" y="450"/>
                            <mxPoint x="850" y="520"/>
                        </Array>
                    </mxGeometry>
                </mxCell>
                <mxCell id="63" value="" style="rounded=0;orthogonalLoop=1;jettySize=auto;html=1;endArrow=classicThin;endFill=1;endSize=6;strokeWidth=1;fontColor=#000000;startArrow=none;startFill=1;exitX=0;exitY=0.5;exitDx=0;exitDy=0;" edge="1" parent="E2yFMoDqiKqBGXm1PeEA-1" source="140">
                    <mxGeometry relative="1" as="geometry">
                        <mxPoint x="558.4999999999995" y="489.17" as="sourcePoint"/>
                        <mxPoint x="300" y="489" as="targetPoint"/>
                        <Array as="points">
                            <mxPoint x="470" y="565"/>
                            <mxPoint x="470" y="489"/>
                        </Array>
                    </mxGeometry>
                </mxCell>
                <mxCell id="64" value="" style="rounded=0;orthogonalLoop=1;jettySize=auto;html=1;endArrow=classicThin;endFill=1;endSize=6;strokeWidth=1;fontColor=#000000;startArrow=none;startFill=1;exitX=0;exitY=0.5;exitDx=0;exitDy=0;" edge="1" parent="E2yFMoDqiKqBGXm1PeEA-1" source="142">
                    <mxGeometry relative="1" as="geometry">
                        <mxPoint x="570" y="610" as="sourcePoint"/>
                        <mxPoint x="300" y="615" as="targetPoint"/>
                        <Array as="points"/>
                    </mxGeometry>
                </mxCell>
                <mxCell id="65" value="" style="rounded=0;orthogonalLoop=1;jettySize=auto;html=1;endArrow=classicThin;endFill=1;endSize=6;strokeWidth=1;fontColor=#000000;startArrow=none;startFill=1;entryX=1;entryY=0.75;entryDx=0;entryDy=0;exitX=0;exitY=0.75;exitDx=0;exitDy=0;" edge="1" parent="E2yFMoDqiKqBGXm1PeEA-1" source="144">
                    <mxGeometry relative="1" as="geometry">
                        <mxPoint x="720" y="680" as="sourcePoint"/>
                        <mxPoint x="300.00000000000045" y="680" as="targetPoint"/>
                        <Array as="points"/>
                    </mxGeometry>
                </mxCell>
                <mxCell id="77" value="Backend" style="fillColor=none;strokeColor=#3399FF;verticalAlign=top;fontStyle=0;fontColor=#FFFFFF;align=center;rounded=0;labelBorderColor=none;labelBackgroundColor=none;fontFamily=Helvetica;" vertex="1" parent="E2yFMoDqiKqBGXm1PeEA-1">
                    <mxGeometry x="680" y="40" width="650" height="770" as="geometry"/>
                </mxCell>
                <mxCell id="78" value="" style="outlineConnect=0;fontColor=#232F3E;gradientColor=#F34482;gradientDirection=north;fillColor=#BC1356;strokeColor=#ffffff;dashed=0;verticalLabelPosition=bottom;verticalAlign=top;align=center;html=1;fontSize=12;fontStyle=0;aspect=fixed;shape=mxgraph.aws4.resourceIcon;resIcon=mxgraph.aws4.cloudwatch_2;" vertex="1" parent="E2yFMoDqiKqBGXm1PeEA-1">
                    <mxGeometry x="-30" y="905" width="59" height="59" as="geometry"/>
                </mxCell>
                <mxCell id="81" value="" style="aspect=fixed;perimeter=ellipsePerimeter;html=1;align=center;shadow=0;dashed=0;fontColor=#4277BB;labelBackgroundColor=#ffffff;fontSize=12;spacingTop=3;image;image=img/lib/ibm/analytics/analytics.svg;" vertex="1" parent="E2yFMoDqiKqBGXm1PeEA-1">
                    <mxGeometry x="-290" y="910" width="60" height="60" as="geometry"/>
                </mxCell>
                <mxCell id="84" value="&lt;span style=&quot;color: rgb(240, 240, 240); font-size: 12px; text-align: center; background-color: rgb(24, 20, 29);&quot;&gt;Dashboard - Alertas CloudWatch&lt;/span&gt;" style="text;whiteSpace=wrap;html=1;fontSize=15;fontFamily=Helvetica;fontColor=#FFFFFF;" vertex="1" parent="E2yFMoDqiKqBGXm1PeEA-1">
                    <mxGeometry x="-30" y="975" width="70" height="40" as="geometry"/>
                </mxCell>
                <mxCell id="86" value="&lt;span style=&quot;color: rgb(240, 240, 240); font-size: 12px; text-align: center; background-color: rgb(24, 20, 29);&quot;&gt;Analitica- Apiconect&lt;/span&gt;" style="text;whiteSpace=wrap;html=1;fontSize=15;fontFamily=Helvetica;fontColor=#FFFFFF;" vertex="1" parent="E2yFMoDqiKqBGXm1PeEA-1">
                    <mxGeometry x="-285" y="980" width="70" height="40" as="geometry"/>
                </mxCell>
                <mxCell id="91" value="" style="sketch=0;html=1;dashed=0;whitespace=wrap;fillColor=#2875E2;strokeColor=#ffffff;points=[[0.005,0.63,0],[0.1,0.2,0],[0.9,0.2,0],[0.5,0,0],[0.995,0.63,0],[0.72,0.99,0],[0.5,1,0],[0.28,0.99,0]];verticalLabelPosition=bottom;align=center;verticalAlign=top;shape=mxgraph.kubernetes.icon;prIcon=ns;shadow=1;labelBorderColor=none;fontFamily=Helvetica;fontSize=15;fontColor=#3399FF;" vertex="1" parent="E2yFMoDqiKqBGXm1PeEA-1">
                    <mxGeometry x="690" y="42" width="50" height="48" as="geometry"/>
                </mxCell>
                <mxCell id="92" value="&lt;span style=&quot;color: rgb(240, 240, 240); font-size: 12px; text-align: center; background-color: rgb(24, 20, 29);&quot;&gt;ISTIO&lt;/span&gt;" style="text;whiteSpace=wrap;html=1;fontSize=15;fontFamily=Helvetica;fontColor=#FFFFFF;" vertex="1" parent="E2yFMoDqiKqBGXm1PeEA-1">
                    <mxGeometry x="750" y="60" width="40" height="40" as="geometry"/>
                </mxCell>
                <mxCell id="96" value="&lt;span style=&quot;color: rgb(240, 240, 240); font-size: 12px; text-align: center; background-color: rgb(24, 20, 29);&quot;&gt;Amazon RDS&lt;/span&gt;" style="text;whiteSpace=wrap;html=1;fontSize=15;fontFamily=Helvetica;fontColor=#FFFFFF;" vertex="1" parent="E2yFMoDqiKqBGXm1PeEA-1">
                    <mxGeometry x="1450" y="390" width="40" height="40" as="geometry"/>
                </mxCell>
                <mxCell id="99" value="&lt;div style=&quot;text-align: center;&quot;&gt;&lt;font color=&quot;#f0f0f0&quot;&gt;&lt;span style=&quot;font-size: 12px; background-color: rgb(24, 20, 29);&quot;&gt;Dynamo DB&lt;/span&gt;&lt;/font&gt;&lt;/div&gt;" style="text;whiteSpace=wrap;html=1;fontSize=15;fontFamily=Helvetica;fontColor=#FFFFFF;" vertex="1" parent="E2yFMoDqiKqBGXm1PeEA-1">
                    <mxGeometry x="1450" y="550" width="40" height="40" as="geometry"/>
                </mxCell>
                <mxCell id="100" value="" style="endArrow=none;html=1;fontFamily=Helvetica;fontSize=15;fontColor=#FFFFFF;startArrow=none;entryX=0.999;entryY=0.491;entryDx=0;entryDy=0;entryPerimeter=0;" edge="1" parent="E2yFMoDqiKqBGXm1PeEA-1" target="77">
                    <mxGeometry width="50" height="50" relative="1" as="geometry">
                        <mxPoint x="1440" y="350" as="sourcePoint"/>
                        <mxPoint x="1340" y="130" as="targetPoint"/>
                        <Array as="points">
                            <mxPoint x="1440" y="350"/>
                        </Array>
                    </mxGeometry>
                </mxCell>
                <mxCell id="101" value="" style="endArrow=none;html=1;fontFamily=Helvetica;fontSize=15;fontColor=#FFFFFF;startArrow=none;entryX=1;entryY=0.49;entryDx=0;entryDy=0;entryPerimeter=0;" edge="1" parent="E2yFMoDqiKqBGXm1PeEA-1" target="77">
                    <mxGeometry width="50" height="50" relative="1" as="geometry">
                        <mxPoint x="1440" y="510" as="sourcePoint"/>
                        <mxPoint x="1339.3500000000004" y="452.6199999999999" as="targetPoint"/>
                        <Array as="points">
                            <mxPoint x="1440" y="510"/>
                        </Array>
                    </mxGeometry>
                </mxCell>
                <mxCell id="105" value="         EKS" style="fillColor=none;strokeColor=#D86613;verticalAlign=top;fontStyle=0;fontColor=#D86613;align=left;rounded=0;spacingLeft=10;" vertex="1" parent="E2yFMoDqiKqBGXm1PeEA-1">
                    <mxGeometry x="615" width="770" height="855" as="geometry"/>
                </mxCell>
                <mxCell id="108" value="&lt;div style=&quot;text-align: center;&quot;&gt;&lt;font color=&quot;#f0f0f0&quot;&gt;&lt;span style=&quot;font-size: 12px; background-color: rgb(24, 20, 29);&quot;&gt;Grafana&lt;/span&gt;&lt;/font&gt;&lt;/div&gt;" style="text;whiteSpace=wrap;html=1;fontSize=15;fontFamily=Helvetica;fontColor=#FFFFFF;" vertex="1" parent="E2yFMoDqiKqBGXm1PeEA-1">
                    <mxGeometry x="-150" y="990" width="70" height="40" as="geometry"/>
                </mxCell>
                <mxCell id="116" value="" style="shape=image;verticalLabelPosition=bottom;labelBackgroundColor=default;verticalAlign=top;aspect=fixed;imageAspect=0;image=data:image/png,iVBORw0KGgoAAAANSUhEUgAAAOEAAADgCAMAAADCMfHtAAAAk1BMVEXmUiz////kPgDmTiXlRhfqeGHlSh7woZPmUCnkPADlTCHlRRTlSx/mTiblSBrlQw7rfWf2x7/86+j3zsftjnz99PL++vnulIP529b649/wpZfshnLqclnoYkPnWDXsgm31wrnpa0/xrKDztqz30szys6jvm4v53dj87+3nWznoYULpb1T0vbPti3joZ0rmVTHiJgADktzHAAAPy0lEQVR4nN1d6WKCOBAOASmHEG29ag+PevRQu+//dMstRwKZTLDufj9tRT6SzD0DMf7vIDf4jenj4um03z4c5pPJZD4/LLcf66fj4+wGP230zPBz93EYfTPKmG+FoT0cehGGQzsMLZ8xGl5eHk6LaZ93YPTH8HF9ePUpC4emQ4RwTNti1Bstnz57ug2jH4bH/chilh2IqdV5+pScT4893Iqhn+HnacVYaEqSK9H0LOrMxz2cTa0Mn7dv1IKzu7L03cGH7nOpj+Hj9p2GLYdODmbo/py0rqQmhrPTRQO9FIHlrp703FYMLQyPE2rJyhUpmMxb6hKvGhiOL9TTSS+BY7urBf7eDA0M9wHTunxXmPQy/nOGs6VvaTp9PATsff23DJcsBN5yaMO+4Pi/WI4IhnsfyM9hm9MWSDH60hdOsCozHDsW8F49Z2cY3/BN7bCf59szfN4w6K2Gr9H3dgxMMELgTtSNADWGcxcsP+1B/MUXRb0yZB+3ZDj2oIcpEv2X5KtKS5iAXRS3KpzhbEQVzpKfGNSP6gyjrbq8DcMxU9loNNXdascwh/WlsoxQhi9U5d7MUfZ4fAzDaBm3fTM8OvATGMPNzOgnHENC/B+w+whiuHXVTLThPLvAArVLY5j+rkeGA9X7y5fQeFTa4xU4UIEjz/CRqPpI5qq4CJ5htFMH/TB8UtARGdh1Yw3UozhXDH8hYTlZhltX+YYcu3QZoLHOR0ABh1GS4RkhIgo5E+EZLWpSuCfNDF+hfkQZftn7cTQ5zFRa3sgwnL2pacH8Zsoq7EF8KRh3NtHHcPqOEg/Oe/liR6E0tX9gFP2V6IahDKcOTv6Z58rlvgQ8/PkJKIVCOa3RyfDTRIbS7OqJ2fN5hCvjTcmnRjOcethYoVUVe1Ou2oncR/4f8BQ7GE4ddDDUrwU9V7xNz6ZKfofMRm1nOPvF2yB+LVTG8xHZulXKtlDsFjftDN80GFkNZ6CpEs14t3HXtvvqnUqjleHrEE+wbJWmaFpubmxnggVNdvku1d/G8AVqRH4xToyf1RMsDZHiJeug+jRphwHXwnAJtSHNifHRTAGzRnBlVPuf1H1Udqzc9hyVmOEYLr1pJJsudS+SNRKBT9VHZ74YKIZO8xekGD4ruEvJkbvUVog2w9VeZS/TY/KheggneG/8ggTDWaBw8MN9/M1h9Zu0efFlWTE4b+mH7+pehz1SYPiqErLwEk9wV1l956t58Uq4Jszi9a8I24K1RBkFDJdKeyYLi57LT8fkmR2bEpt8F58xqfIWacNnuFCLWQQ/yben5SXy5pzrn64edfEEUAEOxxYmp7gM60dJmuEm/X7ZAAt5G2h2fQZWnuPFxcM9oYXKZThS3DDZGlYWsW54p3gpBG4RAUDGUoXpNx7DtWq4qAiMls5UU+HHKML7+bJHUNw4OVxBiJHDcKr8MHnRe46yiJH/Q2kTo0RN9Kwu0gzVo7bX2y38h1zb1THJ6JSs1jUmoBfB56uMJkPlPVp2BQtZ4wm8m3ybsutHCk5+FS7XemswnCFEGi2OQrFNLZHln/5DRVtukPEEkxvUaDA8I3xCv05AJGiM3OGt6JIPbMif8aqL6gwVdX0Cs2Qe5h47MwRIlX4lAIDepk4owVChoqdAYnhX18MU2sRpBqMSD1cMZJTv4NDJ8ITJnJR35JE1SNcQ6ySn+vO4QoYYHKVYY4ip83XM8pXSHUfF1ROXoJI7TSAKiEuDY+dXGS4xZ31YsbGTwJLTEiSJNWLdaF1jKxkIbTgZlVuYoUzDalAtUen2g5hh7Es0jFZ08q1p2VQYHlBZNL9y4cQZYkcxw9iXaOgSlBxIwOq1mmWGOGlds15iAm2bNJFFbuNT9El0vlsY4pawFvmNCXB9wxyflDi/jU936GqN+iKWGOKW0BlWLxx7KHxDMYfL1ZavWJ0Y1Gz9EkOl1EgBu65saUMX1GA6Q46CVoliVlHbTCWGuENO60IlcBofVXEJuPbABJssqRngV4Z7lHvWDBq+eR35y5HJjXCoO+A5qmbGleEvSoo1hcqr276ExtzjKxPcaSF1qV4wfMJt0qZQGXQlL5c25UoinN0Ro5JIKBjiKs6C5o5cdVWCfoRNdZgAvYiV850z/MSJMKvpe3ZW1419j/8H9CJW9GzOcIl7bpwEUyd2TBAdM+ZYcVrOyuYMcSav9wInGGk+kXv8iNWJZVlD8ueJumLD3JXB1BVWGaDLUEtR2ozhBBeN9fk32gFX6FshBXvFLcsY4q4oCop2wBMb5sgIf9niJTqeWaOgRA4bcS8Tzs0hZdGXMkRuUmHIsB1ncZ0Ium3hqr5ShrjwiHcW3mkrli1tvuhtWlhURMMT46cIu7FukcDIXVXaVwlDpJlEFQc9HFuO7xiZiLrKhoQhLjhSSnLCMGtxPj6xllvhkRP81Wy1vsCYYsvfsHHFwmGNGSJTk4q6ogMvaLPm88oQeapVrO5uoLtrcn0RMwR2OtQgymMjgW5VzJMMBH0Mh7ySIDzQ/UP5QSTo1lVhHhsHfCzDneYMkdqwUQOsCegMRpZfJriiQKKu77uAyUYnyMJ/BP2wBCVBaKC94Mw0Jdh6skauRxfQCjHLfBGsWObWj+rAHD2aKVXUBKtaVV2nThzQzR5pSJ1gLZqe1KGGuHBm1RBsrRUvQ6YFyAguyV0CgvTvW4sR/phh2ttJsLbDHa9hWpdBsPYft1JdB/DnkCRlbmSH3KWmSkBfBnhtkaoLgq3MzavXtQNdxhepizj/RQSdx9Jwgp4YXvDDChOngCyxilWQ5kQDXeKWVWUT9HYXVgHjgC9YyFxXgjZwOelfHcCPI8qy3WSA3e49KUSsfIiRGDUEOI2iCV77nQag9xbJ7C2i2EJdAr9mBAsdo3oSr4B8oa/TSyhKy6ieJHNLftHX6cUH1jJuKfFdNVynl1gUupI2RmJRarhO0cmrEc86xp7pY9iDNMWHMGKkDPHnsI/sk56RYClDvCwVNY0h8IHNAKdIJQ06tByjoxoYDE0zzxLvnGykL+ZZQ5GFp3kRTy1+hRn60nZmYlDK26XeYX3YuCz0eI+EanyZgWHY3KfuROSoPVrupG85tUulXem0IOF4mvxS365/idM5oY5m91VEjlFntd0lBqK0GEpyM2QibeEWPbDT3XLAmFVZzFC5XKGBau2l40Xkfs/7XWFWyKchUv/wQVrzVGsunk+T92gxiw3janOEixB1Qu5rsq+9MEne60hKmYj8oPtmRGb6tHzNF1Ob2t8mSxS/P+h78rFoVkEAArxpnAYwy49fJxst5lcsgCy1EszG5dxgaDE2WO4EJR6AfugkwEIAyTWxEzFb7M9f/4g7YuUxpe7msG7b8YBJPYlLQI4AA4m21t/PdNhuu67jDKnXTqr3CCSmpVgLrBWAqoNUNBDQjK32drtbQDz/tIm0FJqAah7+fhEh9QtpeSKB5QdEQ2BuBcgSZp45geXpeqtLkAQoYZ26rQRYewmZpK0fsJ6CNMxJgHE7rSY2GLAqyrTPhUAHFlr6TGwwYCMfshNFwIND/07YABu+shoKAu6Fq3eD3w7AupisSYJUBuDJffOP9ukeGIDLbEyikCLoamHuB+CmxGzgUFy/B80n/408/QYmOvMikZhhfeptJ+y+KkxaMIemavJcQ8wQnm5l/dR2t2ANTmTk9QUxQ4Vcnb6ojBwUMjX53K+kjhbeCuc4NyU44wZpW1HUvSYMFUpMu4Ze6IXCbPiiRCRhqNJx4fdVk8jBQKGIz81DkAnDmUr/e9csdH0Az4Yn5ZbBtJ5dqfLfH9wGG6WXJuyrDKGGWwrzNlAqabqGBVOG6JmM94ZSQ102cUDL28LuCKX5LRlD/Di/+0Ip7JnPNtFS3XE3KA8Eyhmi+9/vCv66yVBHOef9oDzGopgTpaXM6k5QKXktGMJLWALrNoBbNBXPp2A4A79VRvLNbnhA76w6eOw6kQ5aSiYegvzXDKu56itDaKTnbhnWwkilyZDAJpW7ZVirWS4xBGWu7pdhfWx5eQYtzDi9V4b1kaFlhrBFvFOGjlX7dmWWMWjC7Z0ytOo1LxWGoAm398mwPs64PpMdIk7vk6HfiB5VGUJ04l0y5KRUajPFAbPu7pIhp5K3xhDwDpZ7ZMirxq7Phf+Qvtw9MuRl4BuT799kg3d3yJD3ipImQ2mNcX8M+U3XzbcXyKYi748hv2GA834GyXaOu2Po8V1yDsOd3D69N4aOzy+b5r1jQ3KfmvRGkLobQgUzRrlvEcGN2P8bCKsnuAzx75i4OcRpd/6bYLb/ufiwuIpJ8K4bpZfl/iFaXpcrYKhQ/PCXGLaULoveV3T8Lx3F1rcuCf92Usu3mTYKakM6WjtdxOznKrl987x8QGCpNIfEbZ223bK+rwod4z6y0F1lwBdrr3dt28Hv8AeqOrw8h8I8oLCjULKN4RT+NsSWNzpKAV4xMewqP2tjaDxTKEVs21AA/UGzs7GzlSH8vavIaabg4VAB6Ry13c7QeIJSxM05gZYQBl73z3UwBFPEzcUCvprbCSW6BbsYGmMYRc6rrQCA5tFkmls6GUIpYlpqYAWEwVCq37ObIXCjYqQpyPM2A7mGVgmGxgKkNNQXsW3gR/NJvkvKNBmGxrMFsG6U55zMIAaGfZF9I4MUQ2P6CxByqs0YLwA72JcP9MkxNIwfQGVSe9u+CJCeEQooo5dlaJzlJXnwrkAQEP1yXMhwMWmGxt6Vn0YEn0v7KX8ITQv0NgZ5hsYilDb8bai0+ZSvVw8vMMMQwNCYbaTFub0B3cVzKE2QQmdPQxhGLrj0TjUJQNyMpRWuycAuNoyhsTBlRTpAHEykpai/gbsuQIaR1pJ+3uxHahl3RDY2E7htbzIXAczQeApll9F0D52Gx+NA+on5b0p6Fs7QmJ2lb8qmh1bz+LhyZeWzSVUWUI1hdBp/pd0c2x2IZMP0443K8nPYQHU0jhJDw9hSaUPV9Onoo9FUu9huqLyKCB31mX6KDI3piyvvb8QT8zbz7elpt1jsxqfl+YsyeXpkSDEzDlQZRlr6h0IixoEXWj5jzPdD2wR5uu4EFd1SZxjJ+TeGn+7fyW+FnDSCYRhpjp45eu4K3RaPYxit44+8zIHCds8a2v6xDCOd9uLy543i4FjsQcvsNDzDSK4uh0xzD6pHv3W1iutgGOFp4MITVSJEGnSib0CMJobRQu7fACq8hZ7lDrS+MUMbwwiP2zdqYbar4/l0cNI8w14nwwifpxFjavUGkeFjT8b630urmWGM3fInMsogdovjWYyN9v1MhOmBYYzF/oVQZg27eDqmbTH3e3Lqb95NTwxjTBenw8BxGbNC2zODojDXcQLTHNqhzyj9Wj2se56r1SPDDI+L8cf2cB69br7ffwn5/frevK4mh8jTON5kGuq/JNAM5+heQ0wAAAAASUVORK5CYII=;" vertex="1" parent="E2yFMoDqiKqBGXm1PeEA-1">
                    <mxGeometry x="760" y="919.5" width="70.32" height="70" as="geometry"/>
                </mxCell>
                <mxCell id="118" value="" style="outlineConnect=0;fontColor=#232F3E;gradientColor=#F34482;gradientDirection=north;fillColor=#BC1356;strokeColor=#ffffff;dashed=0;verticalLabelPosition=bottom;verticalAlign=top;align=center;html=1;fontSize=12;fontStyle=0;aspect=fixed;shape=mxgraph.aws4.resourceIcon;resIcon=mxgraph.aws4.cloudwatch_2;" vertex="1" parent="E2yFMoDqiKqBGXm1PeEA-1">
                    <mxGeometry x="880" y="921" width="69" height="69" as="geometry"/>
                </mxCell>
                <mxCell id="119" value="&lt;div style=&quot;text-align: center;&quot;&gt;&lt;font color=&quot;#f0f0f0&quot;&gt;&lt;span style=&quot;font-size: 12px; background-color: rgb(24, 20, 29);&quot;&gt;Grafana&lt;/span&gt;&lt;/font&gt;&lt;/div&gt;" style="text;whiteSpace=wrap;html=1;fontSize=15;fontFamily=Helvetica;fontColor=#FFFFFF;" vertex="1" parent="E2yFMoDqiKqBGXm1PeEA-1">
                    <mxGeometry x="650" y="1000" width="70" height="40" as="geometry"/>
                </mxCell>
                <mxCell id="120" value="&lt;div style=&quot;text-align: center;&quot;&gt;&lt;font color=&quot;#f0f0f0&quot;&gt;&lt;span style=&quot;font-size: 12px; background-color: rgb(24, 20, 29);&quot;&gt;Prometeus&lt;/span&gt;&lt;/font&gt;&lt;/div&gt;" style="text;whiteSpace=wrap;html=1;fontSize=15;fontFamily=Helvetica;fontColor=#FFFFFF;" vertex="1" parent="E2yFMoDqiKqBGXm1PeEA-1">
                    <mxGeometry x="760.32" y="1000" width="70" height="40" as="geometry"/>
                </mxCell>
                <mxCell id="122" value="&lt;span style=&quot;color: rgb(240, 240, 240); font-size: 12px; text-align: center; background-color: rgb(24, 20, 29);&quot;&gt;Dashboard - Alertas CloudWatch&lt;/span&gt;" style="text;whiteSpace=wrap;html=1;fontSize=15;fontFamily=Helvetica;fontColor=#FFFFFF;" vertex="1" parent="E2yFMoDqiKqBGXm1PeEA-1">
                    <mxGeometry x="880" y="989.5" width="70" height="40" as="geometry"/>
                </mxCell>
                <mxCell id="123" value="                    AWS CLOUD" style="fillColor=none;strokeColor=#D86613;verticalAlign=top;fontStyle=0;fontColor=#D86613;align=left;rounded=0;spacingLeft=10;" vertex="1" parent="E2yFMoDqiKqBGXm1PeEA-1">
                    <mxGeometry x="-730" y="-90" width="2370" height="1150" as="geometry"/>
                </mxCell>
                <mxCell id="127" value="" style="rounded=0;orthogonalLoop=1;jettySize=auto;html=1;endArrow=none;endFill=1;endSize=6;strokeWidth=1;fontColor=#000000;startArrow=classicThin;startFill=1;entryX=1;entryY=0.5;entryDx=0;entryDy=0;exitX=0;exitY=0.5;exitDx=0;exitDy=0;" edge="1" parent="E2yFMoDqiKqBGXm1PeEA-1" source="E2yFMoDqiKqBGXm1PeEA-23" target="126">
                    <mxGeometry relative="1" as="geometry">
                        <mxPoint x="710" y="385" as="sourcePoint"/>
                        <mxPoint x="302.5" y="385" as="targetPoint"/>
                        <Array as="points"/>
                    </mxGeometry>
                </mxCell>
                <mxCell id="126" value="&lt;span style=&quot;font-family: Helvetica; font-size: 11px; font-style: normal; font-variant-ligatures: normal; font-variant-caps: normal; font-weight: 400; letter-spacing: normal; orphans: 2; text-align: center; text-indent: 0px; text-transform: none; widows: 2; word-spacing: 0px; -webkit-text-stroke-width: 0px; background-color: rgb(24, 20, 29); text-decoration-thickness: initial; text-decoration-style: initial; text-decoration-color: initial; float: none; display: inline !important;&quot;&gt;JSON/HTTPs&lt;/span&gt;" style="text;whiteSpace=wrap;html=1;fontSize=15;fontFamily=Helvetica;fillColor=none;fontColor=#f1efef;" vertex="1" parent="E2yFMoDqiKqBGXm1PeEA-1">
                    <mxGeometry x="460" y="370" width="70" height="30" as="geometry"/>
                </mxCell>
                <mxCell id="131" value="" style="rounded=0;orthogonalLoop=1;jettySize=auto;html=1;endArrow=classicThin;endFill=1;strokeWidth=1;fontColor=#000000;startArrow=none;startFill=1;exitX=0;exitY=0.5;exitDx=0;exitDy=0;" edge="1" parent="E2yFMoDqiKqBGXm1PeEA-1" source="57">
                    <mxGeometry relative="1" as="geometry">
                        <mxPoint x="1040" y="256" as="sourcePoint"/>
                        <mxPoint x="300" y="180" as="targetPoint"/>
                        <Array as="points">
                            <mxPoint x="480" y="105"/>
                            <mxPoint x="480" y="180"/>
                        </Array>
                    </mxGeometry>
                </mxCell>
                <mxCell id="133" value="" style="rounded=0;orthogonalLoop=1;jettySize=auto;html=1;endArrow=classicThin;endFill=1;endSize=6;strokeWidth=1;fontColor=#000000;startArrow=none;startFill=1;exitX=0;exitY=0.5;exitDx=0;exitDy=0;" edge="1" parent="E2yFMoDqiKqBGXm1PeEA-1" source="75">
                    <mxGeometry relative="1" as="geometry">
                        <mxPoint x="1040" y="210" as="sourcePoint"/>
                        <mxPoint x="300" y="287.5" as="targetPoint"/>
                        <Array as="points">
                            <mxPoint x="600" y="135"/>
                            <mxPoint x="600" y="288"/>
                        </Array>
                    </mxGeometry>
                </mxCell>
                <mxCell id="134" value="" style="rounded=0;orthogonalLoop=1;jettySize=auto;html=1;endArrow=none;endFill=1;endSize=6;strokeWidth=1;fontColor=#000000;startArrow=classicThin;startFill=1;exitX=0;exitY=0.5;exitDx=0;exitDy=0;entryX=1;entryY=0.5;entryDx=0;entryDy=0;" edge="1" parent="E2yFMoDqiKqBGXm1PeEA-1" source="54" target="75">
                    <mxGeometry relative="1" as="geometry">
                        <mxPoint x="1040" y="135" as="sourcePoint"/>
                        <mxPoint x="300" y="287.5" as="targetPoint"/>
                        <Array as="points"/>
                    </mxGeometry>
                </mxCell>
                <mxCell id="75" value="&lt;span style=&quot;font-family: Helvetica; font-size: 11px; font-style: normal; font-variant-ligatures: normal; font-variant-caps: normal; font-weight: 400; letter-spacing: normal; orphans: 2; text-align: center; text-indent: 0px; text-transform: none; widows: 2; word-spacing: 0px; -webkit-text-stroke-width: 0px; background-color: rgb(24, 20, 29); text-decoration-thickness: initial; text-decoration-style: initial; text-decoration-color: initial; float: none; display: inline !important;&quot;&gt;JSON/HTTPs&lt;/span&gt;" style="text;whiteSpace=wrap;html=1;fontSize=15;fontFamily=Helvetica;fontColor=#FFFFFF;" vertex="1" parent="E2yFMoDqiKqBGXm1PeEA-1">
                    <mxGeometry x="720" y="120" width="70" height="30" as="geometry"/>
                </mxCell>
                <mxCell id="136" value="" style="rounded=0;orthogonalLoop=1;jettySize=auto;html=1;endArrow=none;endFill=1;endSize=6;strokeWidth=1;fontColor=#000000;startArrow=classicThin;startFill=1;exitX=0;exitY=0.75;exitDx=0;exitDy=0;" edge="1" parent="E2yFMoDqiKqBGXm1PeEA-1" source="54">
                    <mxGeometry relative="1" as="geometry">
                        <mxPoint x="1040" y="167.5" as="sourcePoint"/>
                        <mxPoint x="960" y="168" as="targetPoint"/>
                        <Array as="points"/>
                    </mxGeometry>
                </mxCell>
                <mxCell id="138" style="edgeStyle=none;html=1;fontFamily=Helvetica;fontSize=15;fontColor=#FFFFFF;" edge="1" parent="E2yFMoDqiKqBGXm1PeEA-1">
                    <mxGeometry relative="1" as="geometry">
                        <mxPoint x="960" y="165" as="targetPoint"/>
                        <mxPoint x="960" y="165" as="sourcePoint"/>
                    </mxGeometry>
                </mxCell>
                <mxCell id="135" value="&lt;span style=&quot;font-family: Helvetica; font-size: 11px; font-style: normal; font-variant-ligatures: normal; font-variant-caps: normal; font-weight: 400; letter-spacing: normal; orphans: 2; text-align: center; text-indent: 0px; text-transform: none; widows: 2; word-spacing: 0px; -webkit-text-stroke-width: 0px; background-color: rgb(24, 20, 29); text-decoration-thickness: initial; text-decoration-style: initial; text-decoration-color: initial; float: none; display: inline !important;&quot;&gt;JSON/HTTPs&lt;/span&gt;" style="text;whiteSpace=wrap;html=1;fontSize=15;fontFamily=Helvetica;fillColor=none;fontColor=#f1efef;" vertex="1" parent="E2yFMoDqiKqBGXm1PeEA-1">
                    <mxGeometry x="880" y="150" width="70" height="30" as="geometry"/>
                </mxCell>
                <mxCell id="137" style="edgeStyle=none;html=1;exitX=1;exitY=0.5;exitDx=0;exitDy=0;entryX=1;entryY=0.5;entryDx=0;entryDy=0;fontFamily=Helvetica;fontSize=15;fontColor=#FFFFFF;" edge="1" parent="E2yFMoDqiKqBGXm1PeEA-1" source="135" target="135">
                    <mxGeometry relative="1" as="geometry"/>
                </mxCell>
                <mxCell id="139" value="&lt;span style=&quot;font-family: Helvetica; font-size: 11px; font-style: normal; font-variant-ligatures: normal; font-variant-caps: normal; font-weight: 400; letter-spacing: normal; orphans: 2; text-align: center; text-indent: 0px; text-transform: none; widows: 2; word-spacing: 0px; -webkit-text-stroke-width: 0px; background-color: rgb(24, 20, 29); text-decoration-thickness: initial; text-decoration-style: initial; text-decoration-color: initial; float: none; display: inline !important;&quot;&gt;JSON/HTTPs&lt;/span&gt;" style="text;whiteSpace=wrap;html=1;fontSize=15;fontFamily=Helvetica;fillColor=none;fontColor=#f1efef;" vertex="1" parent="E2yFMoDqiKqBGXm1PeEA-1">
                    <mxGeometry x="890" y="500" width="70" height="30" as="geometry"/>
                </mxCell>
                <mxCell id="141" value="" style="rounded=0;orthogonalLoop=1;jettySize=auto;html=1;endArrow=none;endFill=1;endSize=6;strokeWidth=1;fontColor=#000000;startArrow=classicThin;startFill=1;exitX=0;exitY=0.5;exitDx=0;exitDy=0;entryX=1;entryY=0.5;entryDx=0;entryDy=0;" edge="1" parent="E2yFMoDqiKqBGXm1PeEA-1" source="50" target="140">
                    <mxGeometry relative="1" as="geometry">
                        <mxPoint x="1040" y="565" as="sourcePoint"/>
                        <mxPoint x="300" y="489" as="targetPoint"/>
                        <Array as="points">
                            <mxPoint x="720" y="565"/>
                        </Array>
                    </mxGeometry>
                </mxCell>
                <mxCell id="140" value="&lt;span style=&quot;font-family: Helvetica; font-size: 11px; font-style: normal; font-variant-ligatures: normal; font-variant-caps: normal; font-weight: 400; letter-spacing: normal; orphans: 2; text-align: center; text-indent: 0px; text-transform: none; widows: 2; word-spacing: 0px; -webkit-text-stroke-width: 0px; background-color: rgb(24, 20, 29); text-decoration-thickness: initial; text-decoration-style: initial; text-decoration-color: initial; float: none; display: inline !important;&quot;&gt;JSON/HTTPs&lt;/span&gt;" style="text;whiteSpace=wrap;html=1;fontSize=15;fontFamily=Helvetica;fillColor=none;fontColor=#f1efef;" vertex="1" parent="E2yFMoDqiKqBGXm1PeEA-1">
                    <mxGeometry x="580" y="550" width="70" height="30" as="geometry"/>
                </mxCell>
                <mxCell id="143" value="" style="rounded=0;orthogonalLoop=1;jettySize=auto;html=1;endArrow=none;endFill=1;endSize=6;strokeWidth=1;fontColor=#000000;startArrow=classicThin;startFill=1;exitX=0;exitY=0.862;exitDx=0;exitDy=0;exitPerimeter=0;" edge="1" parent="E2yFMoDqiKqBGXm1PeEA-1" source="50">
                    <mxGeometry relative="1" as="geometry">
                        <mxPoint x="1040" y="612.06" as="sourcePoint"/>
                        <mxPoint x="560" y="612" as="targetPoint"/>
                        <Array as="points"/>
                    </mxGeometry>
                </mxCell>
                <mxCell id="142" value="&lt;span style=&quot;font-family: Helvetica; font-size: 11px; font-style: normal; font-variant-ligatures: normal; font-variant-caps: normal; font-weight: 400; letter-spacing: normal; orphans: 2; text-align: center; text-indent: 0px; text-transform: none; widows: 2; word-spacing: 0px; -webkit-text-stroke-width: 0px; background-color: rgb(24, 20, 29); text-decoration-thickness: initial; text-decoration-style: initial; text-decoration-color: initial; float: none; display: inline !important;&quot;&gt;JSON/HTTPs&lt;/span&gt;" style="text;whiteSpace=wrap;html=1;fontSize=15;fontFamily=Helvetica;fillColor=none;fontColor=#f1efef;" vertex="1" parent="E2yFMoDqiKqBGXm1PeEA-1">
                    <mxGeometry x="490" y="600" width="70" height="30" as="geometry"/>
                </mxCell>
                <mxCell id="145" value="" style="rounded=0;orthogonalLoop=1;jettySize=auto;html=1;endArrow=none;endFill=1;endSize=6;strokeWidth=1;fontColor=#000000;startArrow=classicThin;startFill=1;entryX=1;entryY=0.75;entryDx=0;entryDy=0;" edge="1" parent="E2yFMoDqiKqBGXm1PeEA-1" target="144">
                    <mxGeometry relative="1" as="geometry">
                        <mxPoint x="720" y="683" as="sourcePoint"/>
                        <mxPoint x="300.00000000000045" y="680" as="targetPoint"/>
                        <Array as="points"/>
                    </mxGeometry>
                </mxCell>
                <mxCell id="144" value="&lt;span style=&quot;font-family: Helvetica; font-size: 11px; font-style: normal; font-variant-ligatures: normal; font-variant-caps: normal; font-weight: 400; letter-spacing: normal; orphans: 2; text-align: center; text-indent: 0px; text-transform: none; widows: 2; word-spacing: 0px; -webkit-text-stroke-width: 0px; background-color: rgb(24, 20, 29); text-decoration-thickness: initial; text-decoration-style: initial; text-decoration-color: initial; float: none; display: inline !important;&quot;&gt;JSON/HTTPs&lt;/span&gt;" style="text;whiteSpace=wrap;html=1;fontSize=15;fontFamily=Helvetica;fillColor=none;fontColor=#f1efef;" vertex="1" parent="E2yFMoDqiKqBGXm1PeEA-1">
                    <mxGeometry x="440" y="660" width="70" height="30" as="geometry"/>
                </mxCell>
                <mxCell id="146" value="&lt;span style=&quot;font-family: Helvetica; font-size: 11px; font-style: normal; font-variant-ligatures: normal; font-variant-caps: normal; font-weight: 400; letter-spacing: normal; orphans: 2; text-align: center; text-indent: 0px; text-transform: none; widows: 2; word-spacing: 0px; -webkit-text-stroke-width: 0px; background-color: rgb(24, 20, 29); text-decoration-thickness: initial; text-decoration-style: initial; text-decoration-color: initial; float: none; display: inline !important;&quot;&gt;JSON/HTTPs&lt;/span&gt;" style="text;whiteSpace=wrap;html=1;fontSize=15;fontFamily=Helvetica;fillColor=none;fontColor=#f1efef;" vertex="1" parent="E2yFMoDqiKqBGXm1PeEA-1">
                    <mxGeometry x="-480" y="404" width="70" height="30" as="geometry"/>
                </mxCell>
                <mxCell id="148" value="" style="html=1;fontColor=#4D27AA;rounded=0;startArrow=classicThin;startFill=1;verticalAlign=bottom;endArrow=none;entryX=1;entryY=0.5;entryDx=0;entryDy=0;" edge="1" parent="E2yFMoDqiKqBGXm1PeEA-1" source="15" target="147">
                    <mxGeometry relative="1" as="geometry">
                        <Array as="points"/>
                        <mxPoint x="-600" y="419.795918367347" as="sourcePoint"/>
                        <mxPoint x="-680" y="419" as="targetPoint"/>
                    </mxGeometry>
                </mxCell>
                <mxCell id="147" value="&lt;span style=&quot;font-family: Helvetica; font-size: 11px; font-style: normal; font-variant-ligatures: normal; font-variant-caps: normal; font-weight: 400; letter-spacing: normal; orphans: 2; text-align: center; text-indent: 0px; text-transform: none; widows: 2; word-spacing: 0px; -webkit-text-stroke-width: 0px; background-color: rgb(24, 20, 29); text-decoration-thickness: initial; text-decoration-style: initial; text-decoration-color: initial; float: none; display: inline !important;&quot;&gt;JSON/HTTPs&lt;/span&gt;" style="text;whiteSpace=wrap;html=1;fontSize=15;fontFamily=Helvetica;fillColor=none;fontColor=#f1efef;" vertex="1" parent="E2yFMoDqiKqBGXm1PeEA-1">
                    <mxGeometry x="-750" y="404" width="70" height="30" as="geometry"/>
                </mxCell>
                <mxCell id="149" value="" style="outlineConnect=0;dashed=0;verticalLabelPosition=bottom;verticalAlign=top;align=center;html=1;shape=mxgraph.aws3.cloud_2;fillColor=#F58534;gradientColor=none;shadow=1;labelBorderColor=none;strokeColor=#3399FF;fontFamily=Helvetica;fontSize=15;fontColor=#FFFFFF;" vertex="1" parent="E2yFMoDqiKqBGXm1PeEA-1">
                    <mxGeometry x="-730" y="-90" width="75" height="75" as="geometry"/>
                </mxCell>
                <mxCell id="153" value="" style="sketch=0;points=[[0,0,0],[0.25,0,0],[0.5,0,0],[0.75,0,0],[1,0,0],[0,1,0],[0.25,1,0],[0.5,1,0],[0.75,1,0],[1,1,0],[0,0.25,0],[0,0.5,0],[0,0.75,0],[1,0.25,0],[1,0.5,0],[1,0.75,0]];outlineConnect=0;fontColor=#232F3E;gradientColor=#4D72F3;gradientDirection=north;fillColor=#3334B9;strokeColor=#ffffff;dashed=0;verticalLabelPosition=bottom;verticalAlign=top;align=center;html=1;fontSize=12;fontStyle=0;aspect=fixed;shape=mxgraph.aws4.resourceIcon;resIcon=mxgraph.aws4.dynamodb;shadow=1;labelBorderColor=none;fontFamily=Helvetica;" vertex="1" parent="E2yFMoDqiKqBGXm1PeEA-1">
                    <mxGeometry x="1440" y="472" width="78" height="78" as="geometry"/>
                </mxCell>
                <mxCell id="154" value="" style="sketch=0;points=[[0,0,0],[0.25,0,0],[0.5,0,0],[0.75,0,0],[1,0,0],[0,1,0],[0.25,1,0],[0.5,1,0],[0.75,1,0],[1,1,0],[0,0.25,0],[0,0.5,0],[0,0.75,0],[1,0.25,0],[1,0.5,0],[1,0.75,0]];outlineConnect=0;fontColor=#232F3E;gradientColor=#4D72F3;gradientDirection=north;fillColor=#3334B9;strokeColor=#ffffff;dashed=0;verticalLabelPosition=bottom;verticalAlign=top;align=center;html=1;fontSize=12;fontStyle=0;aspect=fixed;shape=mxgraph.aws4.resourceIcon;resIcon=mxgraph.aws4.rds;shadow=1;labelBorderColor=none;fontFamily=Helvetica;" vertex="1" parent="E2yFMoDqiKqBGXm1PeEA-1">
                    <mxGeometry x="1440" y="317" width="78" height="78" as="geometry"/>
                </mxCell>
                <mxCell id="159" value="" style="shape=image;verticalLabelPosition=bottom;labelBackgroundColor=default;verticalAlign=top;aspect=fixed;imageAspect=0;image=data:image/jpeg,/9j/4AAQSkZJRgABAQAAAQABAAD/2wCEAAkGBwgHBgkIBwgKCgkLDRYPDQwMDRsUFRAWIB0iIiAdHx8kKDQsJCYxJx8fLT0tMTU3Ojo6Iys/RD84QzQ5OjcBCgoKDQwNGg8PGjclHyU3Nzc3Nzc3Nzc3Nzc3Nzc3Nzc3Nzc3Nzc3Nzc3Nzc3Nzc3Nzc3Nzc3Nzc3Nzc3Nzc3N//AABEIAMAAzAMBEQACEQEDEQH/xAAbAAEAAgMBAQAAAAAAAAAAAAAABQYBBAcDAv/EAEQQAAEDAwEEBQkDCQgDAAAAAAEAAgMEBREhBhIxQRNRYXGRFCIyUoGhscHRI0LhFSQzQ1NicqLCBzRjc4KS8PEWstL/xAAaAQEAAgMBAAAAAAAAAAAAAAAABQYBAwQC/8QAOREAAQMCBAIIBAUEAgMAAAAAAAECAwQRBRIhMUFREyIyYYGRsdFxocHwFTNCUuEGFCNiQ1MWJDT/2gAMAwEAAhEDEQA/AO4oAgCAIAgCAIAgCAIAgPKeeOnhkmlduxxglzjyCw5yNS6npjVe5Gt3U5NfrtLd7g+d7iIm5ELOTW/UqvTzLK/N5Fzo6VtNFlTddyNWk6ggLfsHfDTzttdU4mKQ/YOP3Her3FSNBUK1eid4exCYtRZm9O3dN/c6ACCpcrZlAEAQBAEAQBAEAQBAEAQBAEAQBAEAQBAY3ggKf/aFcTDRQ0MZ1qSXP/gH4kKOxCRUYjE4kzg0COkdKv6fUoCiCzBAEBlrnMc18Zw9pDmkciOHvS9tUFkdoqXQ6fbdrLVUQRmorI4Jy0dIyTLAHY11OnFTkdbE5EzOspUJsMqWPXKxVQm4aiKdgfDI2RpGQWkEFdTXI5LocLmuYtnJY+97sXo8gyNaCXHAHWg3I2faKzwPLJbjThw4tD8keC0OqYWrZXIdTKGpel0Yp6W+82+5PeyhqWzOYMuDQdAvUc0cmjVueZqWaBLyNshIBbTnCAIAgCAIAgMEoBvIYuYLscdO9LoZAcCdCD3LFwZ3uSAxvdiyCJvG0dutQLZ5N+b9jHq729XtXPNVRw9pTspaCapXqppzKbc9tLhVZbSAUsZ5jVyjZa57+zohO0+EQs1k6y/IrtRPNUP355pJX8cyOJXErlct1W5JsjYxLNS3wPNYPYQBAEAQH3BNLTv6SnkfE/1o3EFZRyt2U8vY16Wel07yfodsrrTN3JjHUtxgF4w4e0LrZXSt0XUjZsIp5Fu3qkVcrrXXOUvrKhz2nhGDho9i55JpJF6ynZT0sUDbMTx4mkAOrw0WuycDpJTZiuNvvdLLveZI7on9odp8cLfTP6OZq89DhxCHpqdyLw1Ott4KwlNMoAgCAIAgMHggKbtHthPQ101FRUzN+IhrpZDkZwDoB39ajaiucxysYm3EnKLCWyxtlkXReCe5VKq/XarJ6W4VAHqxO6Mfy4Ue+olfu5fBbEzHRU0fZYnjr6kc9znu3nuLnHi5xyStN77nUiImxgaHKBdTdpbvc6Qg09fUMA4NL95v+05HuWxs0rNnL9/E55KSCROsxPv4akjU7XXeopDT9LHG4+lNE3DiPl7FvdXTOblucrMJpmPz2v3LsQJ1OSSSdSSdfFcmu5JcLBAEAQBAEAQBAEAQBAEBhz3RjpGnBZ5w9iXtqhm19FO3xnMbT2KzoUBdz6WTAQBAEAQAoDkm1YI2kuAP7QeG61V6q/Pd4eiFzw7/AOSPx9VIpaDsCAIAgCAIAgHwQGxR0NXXP3KOmmmdz3GaDvPAL2yN7+wlzVLPFEl3uRPiTtJsRdpgDOYKYHk5++7wGnvXUygmd2rIR8mM0zezdfl9+RJQ7ANA/OLi4n/Di3fiSt7cN/c7yQ5H47+xnmpsDYChx51dWZ7Nz/5Xv8OZ+5fl7Gv8cm4MT5+55y7AU+Psq+cHlvsafgAvK4c3g5TKY6/9TEI6q2EuEQzTVVPP2OBjPzWl2HyJq1b/ACOqPG4HaPaqfMga+1XC35NbRyxN9Yjeb/uGQuR8MjO0ip98ySiqYZvy3ovr5LqafctZvCAyN3I3xloI3gOY5ppxC3VOrudittwp7hRR1NJIHxOGnYeoqyxSNkajmlFnhfC9WPTU3AcjK9moygCAIAgMHggOXbcw9DtJO79tGyT3bv8ASoKublnXvsW3CH5qRE5X9/qQK5CSCAIAgCAIDZt1vqrlUdBRxF7+Z5NHaeS9xxukdlYhqmnjgbmkWxe7NsXR0oElefKZeO7wYPZzUtDQsZq/VSt1OLyy9WPqp8y0RwxxsDI2NYwDAa0YAXciImxFK5XLdV1PstBWTzZAAAhkYQDCAYCAwWAgg6g6YKWBXrxslbq7L4WeTTHPnR+iT2tXHLRRv1RLKSdNis8WjlzJ3+5Q7zZK2zyAVLMxE4bK30T9ComanfD2tuZYaWthqU6i68iOWk6yX2avclnrQ4kuppNJmA/zDtXRTTrC+67HDX0iVMf+ybHVIZmTRMkieHMeAWuHMFT6LdLoU9zVaqtXdD0HALJgygCAIDDuBQFH/tHozu0la0E4Jif3HUfA+Ki8RZs9CfwOa2eJfj7lIUWWAIAgCAICRsdonvNX0EJ3GNwZJSMhg+vUFuggdM6yHLV1TKZmZ3gnM6la7ZS2ylbBSR7rRxPNx6yVPRxNjblaVCeoknfnepuYC2GkygCAIAgCAIAgMEAoDyqIIp4nxTRtkjeMOa4ZBHasK1HJZTLHuY67Vspz3afZR9v3qu37z6Ti9mcmL6j4KHqaNY+uzYs1BiiTWjl0d6lXXATBdtgbwSXWud/LegJ97fmPb1KUoJ/+JxX8YpLWnb4+5ehwUoQAQBAEAOqAj77b23K1T0ugc5vmHqcNQtM8SSxqw6KSfoJmv5HInRujeWSNLXtJBaeWFW9UXUuqORyXTYxupc9DdS4G6lwetNTSVVRHTwNDpJHBrQvTWq9crdzxJI2NqucuiHWLHaobTb46aIAu4yPxq93WrFDCkTMqFLqql1TIr1JFbjnCAIAgCAIAgCAIAgGEB8PaCCMaHigvbY51tjs8bdL5dSMHkkh89o/VO+h9yhKymWNc7Niz4ZX9K3opF6ybd6e5XaaaWlnjngOJo3B7O8fXh7VxNdlVFTgSkjEkYrF2VDsFvq2V1FDVRHzJWBw7OxWWORJGI5OJSJolikVjuBtL2awgCAIDDuCA59t3bYqatjrIi0eUZ3mDrHP3qExGJrHo9OJZMIqXPj6N36dl7uRV8KOuTFxhLi4wM6oqi5dNgbXutkuMrdTmOLu5n5KXw2HeVSv4zU3VIW8NV+JdW8FKkGZQBAEBq1tbT0MJmqpmxsHNx49y8SSNjbmctkNkUT5XZWJdSp3HbdwLmWyn3v8AFmOnsA/BRkuJptGnipMwYNxmXwT3IKo2lvU5JdXPjB+7G0NA+fvXE6tnd+r6EkzD6VmiNv8AHU1vyxdc5/KNXn/OK8f3M3718zd/aU37E8jYh2lvULgRcJHgfdkY1w+GfevTa2oT9XmaX4fSO/RbzJmi25na4Nr6VrxzfCce4/VdbMTcnbb5ff1OCXBmL+W7z9/4LTbLzQ3No8lnBfzY7Rw9ikoqmOVOqpDz0k0C9dPEkQt5zmcBAeNRDHPFJFK0OZICHNPMYXlzUcll2PTXKxyOTdDld8tjrTcX07smP0ondbfryVcqYVhkycC4UdUlRFn48S1/2f1ZkoJ6Nx1hfvN15H8VJYZJdit5ENjUWWRsicfoW9SZDBAEAQGHcFhQc524qfKL10Q9GnYG+06lQOJSZprciz4RFkp78yv4UfclBhLg+o4nyysiibmSRwYzvJwF6aiuVGpx0PL3Na1XO2TXyOu2+ljoqKGli9CJgaD145q1RsRjEa3ZClSyOker3bqbC9msIAgIi/XmGz0nSPHSTO0ii5uPWeoDmVy1NS2nbdd+CHXSUj6l9k0RN1Oc3GuqbjP01ZJvu5DgG9gCr8sz5XZnqWqCnZC3KxP5NXC1XNwwlwMJcDCXAwlwZa50bhJG8te30SDghZRyot0XUw5EVLOTQuGz21h3mU12cNcBtQP6vqpalxG65JfMgq3CrIskHinsXRhBbkEEHgQVMaLsQVraH0gK/tjbvLrW+RjczU/2je0feHh8Fw18KyRKrd0JHDKjopsq7O09ir7Dz9DfAz7s0Zae8ahR2HPtNZNlQl8WZmp83JTpCnyrhAEAQGHEAHPALAOS3KY1NwqJjxfI4nxVUmdmlc7vLnA3JE1vca2FqNwwgJrZClFTfYS4ebADKe/gPec+xduHsz1Cd2pH4pJkplTnodJHBWNCrGVkBAa9bUx0lNJUTHdZGCSvEkjY2q52yHuON0j0Y3dTltzrZrjWyVMx9L0R6o5AKrzzOler1LfTwtgYjGmqdBk8lpN5OWjZatrwJJvzeA6hzh5zu4fVd9PQSy6u0QjanE4oVyt1UscGxltY0dKZ5Xc8vwPAKSZhsKb3XxIt+LVC9myeB6SbIWl2jY5WHra8rK4dAvD5mG4rUpx+REV+xM0bS6gqRIRruSjBPtXHLhbk1Y47YsYaukjSsVNLPSTGKqidFJjJa5Rkkb41s9LEvHKyVuZi3Q8sLwexjkmmyi5atkb4YZG2+seTG44he77p6u5SuH1mVeievwIXEqHMizRpbmXlp0U4QBgjOeaxuDncNKLVtjFCBhjZ8xj91wOPDOPYq82Poa3LwRfUs7penoFdxVPQ6MrEVgIAgMZGOKwCJvV4pLfA9ksv2rmkCNurvauWpqooUs5dTrpaSWZyK1NDmo1A3uPNVZNi26DCzcDCXBbdgYR0lZMeprPiT8lMYS3Vz/ghB4y/RjfiXMKbIMygCAqO3laWxQ0LD+kPSP7hwHj8FD4tNZEiTjqpM4RDdzpV4aIUzHJQlyfLZsnYWyNZcKxm8BrDGdR/EfkpnD6NHIk0ngQeJVyoqwsX4lzAKmrWII+kMhAYKA0rjbae5U5hqo94fdcOLT1grVNAyVuV6G6Cd8Ds0anOrvap7VVdFPqx36OQcHj6qs1NM+ndlXbgpaaaqZUtzN35Gjhc9zpGO0jtHFLmDouy10Nxt2JTmog8x59Ycne36qyUFSs8Wu6FWxCmSCbTsqTgXecJX7zZpqy9UNbABuxuxLk40ByO/mo+opXSTskbw3+hI01Y2KB8TuOxYFIEcEBgkYKAq20e0fk7nUluIMv35eIb2DtURW4hkXo49+ZLUOH50SSVNORTH7z3l73Oc46kuOSSoFXKqqq7k81Ealk2MYS56uMJcXG6lwXXYJo8iqzzM2P5Qp7B/wApy9/0QgMYX/I1O76lpUuRAQBAc62wkMt/mHKJrWAezP8AUqxiT1dUuTlZPr9Sz4a1G0yLzuR9vpDW3CnpR+skAJ7OJ9y5oI1llbGnE6Z5eiidJyQ6jFGImBjGgNaMADkFb0RESyFQVVVbqeiyYCAIAgCAjL/bWXKgfHgdK3zo3dTly1lOk8St48DqpKhYJUdw4nNSxzSWuGHDQhVRbpoWtHIqXMYS5m5M7KVhpLvG0+hMOjd8veu7DpljnROC6HBiMPSwLbdNTog4KzlYMoAgCAru1N4NDB5NTOxUStyXeo3r7yovEqzoWZGL1lJLD6XpX53bIUbHvOqrd9blh7jOEuZGEuBhLgYS4LfsLJ9hVxjjvh3iMfJT2DO6jk7yDxdOs1e4tQU0Q5lAEBznagY2grM8y3/0aqpiOlU/w9ELRQL/AOszx9VPbY+Nrr3GXalsbnD4fNbcKRHVWvBF9jXiblSm04qh0BWYrYQBAEAQBAYPFY7wc62mphT3mdrR5ryHj2qq4hH0dQ5E46looJM8Db8NCLwuK52GWOMT2yN4tcHBZR+VcycDCpmRUU6rTydLBHJ67QfFXVi3ailOcmVyoei9HkIDxqallPTyTyaMY0krXJI1jVc7ZD0xivcjU4nNK2okrKqSolOXvOe7/gVNmmdNIr3cS2QxNiYjG8DwwtVzZcYS4uMJcXGEuLjCXFye2NnEV0fETpNHp3jX6qVwiS06s5p6EbijM0SO5KXlvBWYr5lAEBSttaVza+KpDfNlZuE/vD8D7lXcYjyypJwVLeKE9hUqLGrOKehGWGobRXWllccMJLHHsOnxXDQSpFUNcu2x11jFkgc1Nzo+deCt9yrGVkBAEAQBAfLuSwoKTtoB+VIiOcIz4lVvGF/zt+BYMJX/AAL8Sv4UTckrjdz3YS5k6VY3l9no3HiYgrlRuV1OxV5IVSrS070Tmby6TnCAi7/STVlskhpz52hx6wHJcVfC+aBzGbnVRytimR7jn7mFpLXAhwOCCNQqgqKi2UsqLpcxhYuehhLgYS4GEuBhLg9qOZ1LVRVDB50Tg7vHMLbDKsMiSJw+1+RrlYkjFYvE6VTysmhZJGcseA5p6wVdWORzUc3ZSpuarVVq7oeq9mAgI680AuNFJD97iwnk4Llq6dJ4lZx4G+mmWGRHeZz6WJ8Mropmlr2nBbjgVTnNVrla7h6loa9HpmaXHZy9MqY2UtS7FQ0YaT+s/FWTDq9JUSJ/a9SBrqNY1WRidX0J/e1UuRxknAysKtgYLsLNwZBygMoD5dyQFD2qk6W8yAHIY0N92qqeKvzVS9xY8OblgTvInCjjuAGiXMXOg2CRv5GpA0g7sYB14K40Kp/bMtyKxWIv9w6/Mk12HMEBjCxa2oIS+WKOvHTQYjqcceT+9Rtdhzajrt0cd1JWOh6q9kp9VSy0spinjcx45Hn3KsSxPhdleliejlbI3M1bnljxWq57unAYQXGEFxhBcY17EuC1bJ3IGLyCQ+c3JjyeI5hWPB6rM3oHbpsQuJQKjulTxLMOCnCKMoDGNcrAIe92WK4t6RhDKho0djQ9hUfW0DapMyaOOylrHQdVdWlPq6CpoXhtTG5v7w4d4KrM9NNTr10t3/yTsU8cqXYt/vkSFDtDXUoa15FRGOT/AEvFdcGKzx6O6yd+/mc0uHwyLdOqpIf+Wv3f7kN7/M0+C7PxxbdjX4/wc34Wn7vka8N0vF1qWik+yjDtdxug7yeK1x1tbVSJ0WiffE9vpqanaufVS3Mzpk8lY0vxIXifayDxqpmU8D5pDhrAXFeJHoxiudsh6YxXuRqbqc3qJDPPJM7i9xcqNLJ0j1evEtcaI1qNTgfGF4PVxhASFluTrbVAnLoZCOkZ8x2rtoax1NJ/qu6fVDkq6dJ2d6F+Y8OY1zSCCMgjgVcUddLoVtUtofayAgMYQGvV0VPVxdHPEHjlnktM8EUzbSJc2RSviW7FsVut2WkZl1FIHj1JDgjuPP3KBnwVzbrA66clJSLE2rpInkQ09vq6ckTU8jO3dyPEKJlpZ4l67VT5kgyojfs5DXx4rQum5tuMILjCC59RPfFK2SJ269hyD1FemSOjcj2LqhhzUe1WqXmzXWO4U+dGys0ezmO3uVxoq1lTHdN03QrdTTugdrsSQOQu45zKAxgLFgfL4mPbuvaHNxjBGVhzUcllQyiqi3Q0JrDbJTl1K0H9wlvwXE/DKR63VnldPQ6W1s7UsjvqfMWz1rjORTB38bi74o3C6Rq3yfUy6unclsxIxxMjYGRtDWjgAMLta1rUs1LHKqq5brqfWF6sYBOEBWNq7jvfmEJycb0p6uoKvYxWp+Q3x9iWw6BfzXeBWcduVXrkuMLIuMILjGmEvxBcdlaoz28wvPnQux7OSteDz9JT5V/Tp7EDiEWSXMnEnVLHAEAQBAY3QgMFoAWFQFa2ot2grYm8NJAOrrVfxmj06dqfElcPqP8AjVfgVvdVcUl7jCXFzOEuYPSmnlpZmzQuLHtOh5dxW2Gd8L+kj3Q8PjbI1WuLfab1FWtbG8tjnHFvrdytlFicdSmVdHciDqKR8OqaoSoPDKkzjPpAEAQBAEBgnCAh73eW0TDFCWvqDy5N7SonEcSbTtVjNXeh20tG6Vcy9kpzsucXOJc4kuc48z1qpucquuu5PaIlk2MYXm5kYS4uMJcXDWkkNAJcTgAakrKXVbIYVbJfgWvZu3T0gkmnG6JGjDOY71aMJo5YEV8ml+BC19QyVUa3gWBTZHBAEAQBAEB8SMa5ha4ZaRgg815c1HIqKmhlFVF0KVeLY6gqDugmF+rHdXYqZiNEtLJdOyuxP0tSkrdd0I/CjtTquMLFzNxhLmDOOHYl1GhL0F+qqYBk+Jox63pePNTNLjM0XVk6yfP+fvU4JqGN+rdF+ROUt7o6gY6To3+q/RTtPilNNojrLyXQjpKOVnC/wJBsjXeg4O7jlSCORdjmVFTdD6yUPILlkyatTcaWmH2s7QeoHJXLNWQQpd7kQ3Mp5ZOyhA3HaGWYGKjHRNOnSO4qArMadImWDROfH+PUkoMPRvWfqQXHzi4uJ4k8c96grquqqSKW4GN1YuZGEuZubVtoXV9S2Fug4vd1BdlFSvqpcibcTRUTpCzMT8ezVKMF8sruwEAfBWBuB099XKpFriUq7IhKUdupKQZgha13rHU+JUjT0cEH5bbevmcss8kvbU2sBdRpMoAgCAIAgCAYygIraR7I7XJvNBLyGtz1qLxh7WUjr8dDromq6ZLFQxzVLuTpjCxcDCXAwlwZwlwMLN9LAyxz2fo3Ob/CSF6ZI5nZVUMKiLuh7tratow2okH+pbkrKhNpFNawxL+lD4fUVD/TnkP+ory+pmd2nr5npI2Jsh47uuea0X4nsbuFnMDOEuDGFi4PSCCSeZkcTS5zjjAWyON8rkYxLqp4e9GJmUudqt8dDTBjcOedXu6yrzRUjaWLIm/EgaidZn3U3cBdhoMoAgCAIAgCAIAgCAgdrD9jTN/fLvAfiq9/ULv8TGc1+hI4d2nL3FcxoFVbkrcYS4uMJcXGEuLjCXFxhLi4wlxcYS4uMJcXGEuLjCXFxhLi57UtLLVSiOFm8fcF0U1PJUvyRpc1yTNjS7i1Wu2xUMeR50pHnPPyVyoMPjpG6au5kLPUOmXuJBugUic5lAEAQBAEAQBAEAQBAQW1Tfs6Z3U4jx/6Vc/qJOpG7vX0JHD16zkK9hVW9tCTQYS5kYS4GEuAWkcQRnrWVum6GLjCxcyMJcDCXAwlwMJcDCXAwlzFye2Xj0qHdwVo/p1q2e5e4jcQXsoT4VlI0ygCAIAgCAIAgCAIAgCAjNoIult7iBrGd8f87iojG4ekpFX9q3OqjfllROZVwBy4Kj3uTPeMLAubNNQVVSR0UTt0/ecMBd1NQVVR+W3TmuiefsaZKiNm6kzQ2SOIh9R9o8cB90KyUeCRxdabrL8iPmrXP0ZohJS00Mrd2SJju9qmJII5EyvaiocrZHtW7VNKWyUknBjo/wCEqOkwSkfslvgdDa2Vvea7tno/uzyDvAXGv9ORfpeptTEHcWnwdntP7x/Itf8A44n/AGfI9fiH+pE1dM+lndHICCDoeRHWoCqpn00ixvT+TtjlbI3Mh44XMbBhAMdaXBbLLT+TUEbT6TvPPtV9wmn6Clai7rqvj/BCVUnSSqpvqSOcIAgCAIAgP//Z;" vertex="1" parent="E2yFMoDqiKqBGXm1PeEA-1">
                    <mxGeometry x="-170" y="910" width="74.38" height="70" as="geometry"/>
                </mxCell>
                <mxCell id="160" value="" style="shape=image;verticalLabelPosition=bottom;labelBackgroundColor=default;verticalAlign=top;aspect=fixed;imageAspect=0;image=data:image/jpeg,/9j/4AAQSkZJRgABAQAAAQABAAD/2wCEAAkGBxITEhUSEBIVFhUTGBYWFRgVGBYXFxgZGBcWFxgTFxcYHiggGBslGxcYITEhJTUrLy4vGB8zODMtNygtLi0BCgoKDg0OGxAQGy0mICUtLS0tLS0tLS0tLSstLS0tLS0tLTUtKy0tLS0vLS0tLS0tLS0tLy0tLy0tLS0tLS0tLf/AABEIAOEA4QMBIgACEQEDEQH/xAAcAAEAAgMBAQEAAAAAAAAAAAAABgcEBQgDAgH/xABBEAABAwICCAMECAUEAgMBAAABAAIDBBEFIQYHEjFBUWFxE4GRIjJioSNCUnKCkrHBFDNDotEIssLwY4Nzo+FE/8QAGgEBAAMBAQEAAAAAAAAAAAAAAAMEBQIBBv/EADMRAAIBAwICCAYCAgMBAAAAAAABAgMEESExEkEFUXGBkaGx8BMiYcHR4SMyQvEzQ1IU/9oADAMBAAIRAxEAPwC8UREAREQBERAEREAREQBEXw94AuSAOZyQH2i1k+PUrPeqIgeW20n0BWC/TOgG+oHk2Q/o1TRt60v6wk+5/gjlWpx/tJLvJCijrdNMPP8A/QPNkg/VqzYdIaR/u1MXm9oPoV7K2rR3hJdzEa1OX9ZJ96Nqi84pWuF2kEcwQR8l6KAkCIiAIiIAiIgCIiAIiIAiIgCIiAIiIAiIgCIiAKNaU6Utoy1vhOe942m5hrd9jd2Zv0txCkqimsLC/GpS9ou+E7bedtzx6Wd+FWLSNOVaMamz0/HmQXTqKlJ0917ffjYheI6c1kuTXtibyYM/zOufSyj1XVSSG8r3PPNzi4/MryK21FozWSfy6d1ubhsjyLrX8l9XGFGgspKP10Xn+z5h1Ktd4bcvF+RqLL8Uxp9XVU733xs/E5x+TbfNZzNWL+NU0doyf+YXD6RtVvNeb+xLGwuHtD0X3K+X4rCfqxdwqge8ZH/MrCn1bVI9ySJ3m5p/2kL2HSVq3hTXmvVJHTsbhbw80/uQ6CdzDtRucw82EtPqFv8ADtOK2LfJ4g5SDa/uFnfNY9bonWxZup3kc22eO/sXI81pCLGx3jeOI6FWcUrhZaUl3Pz1I1KrQfOPivL9FoYTrGgfZtQx0R5j22+dhtD0PdTKkqo5Wh8T2vadxaQR6hc+rIw7Epqd+3BI5juOzuPRzTk4d1mXHQtKetJ8L6nqvyu3XsL9HpOcdKiz2aP8eh0EigejesCOS0dUBG/cHj+WfvX9z9OoU6ab5jMHcvn7i2q28uGosej7DYpVoVY8UHk+kRFASBERAEREAREQBERAEREB4zzNY1z3uDWtBc5ziA1oAuXEnIADiqo0h10xseWUUHigZeLKSxp6tYBtEdTs9l+6+8deyOGiYbCa8ktuLWEBjD0Lrn8AVJrRtbWMo8c+eyIKtVp4RbWHa75g4fxFJG5nExOc1w7B9w7tcK1dG9IqeuhE1M/abucDk9jvsvbwPyO8XC5QUw1V486lxGEAnw6hzYJG8DtmzHd2vIz5F3NSV7SHC3DRo5hWecM6YXm9gIIIuCLEHiDvC9EWUWTVYbgNPTj6GJoP2j7TvzOuVtURdSlKb4pPL+p5GKiuGKwgiIuT0IiIAtdieDQTi08LH9SLOHZwzHktii9jKUXxReGeNKSwyuMb1b73Uj//AFv/AEa8fofVQKuopIXmOZjmOHBwt5jgR1GS6EWBiuFw1DPDnYHDhzaebTvBWxa9M1KeFV+ZdfP8Pv8AEzq/RsJa09H5fru8Cg1JdFNMZaUhj7yQcW3zZ1YTu7bu29fWlWh0tLeRl5IOdvaZ0cB/uGXZRhfQ/wAN3S5Si/fc/Pu3yP5bep1Ne+9e9GX/AIfXxzxtlhcHMduI+YI4EcisxUXozpDLRybTfaY63iM4OHMcnDgVc+GV8c8TZYXbTXDLmObSOBHJfK39hK1llaxez+z+vqb1rdRrrqkt1919PQzURFnlsIiIAiIgCIiAIi/CUBSX+oKhcJqWe3sOY+IngHNdtgeYcfylVKur9J8Bhrqd9POPZdm1w95jh7r29R8wSNxXP+kWrjEaVxAgdPH9WSBpfcdWC7mnnlbqVq2dePBwN4aK1WDzlEQW90FoXTYjSRsGfjRvPRsbhI4/laUw/Q3EZnbEdFPfm+N0bR3fIAFd2rXQBuHNMsrg+pkGy4t92Nu/w2XzNyBd3GwyFs5bi4hCD1y2c06bbyyeoii+m+mUGHRB0ntyvv4UTTZzjzJ+qwcXelzksaMXJ4W5bbxuShFzFpBrExGrcb1DomcI4CY2gci5p2neZ8go83E5wdoTyg8xI8H1ur0bCTWrRC666jr5FzdozrRxClcBLIamLiyY3fb4ZfeB+9tDor40Z0igroBNTOuDk5pyex3FjxwPyO8XCr1redLV7dZ3GalsblERQHYREQBERAfD2gggi4ORB3Hoqv050N8K9RTD6Pe9g/p/E34enDtutNfLhfI7irVpd1LafFHbmuT98nyILi3hXjwy7n1HOykOhmkho5bOJMMhAeN9uAe0cxx5jsFlaeaM/wANJ4sQ+gkO77Dt+x2O8eY4ZxRfYRdK7o9cZL33o+dfxLer1Ne/BnQ8Tw4BzSCCAQRmCDmCCvRV5qy0g2gaSU5tBdETxbvczy3jpfkrDXxt1byt6rpy7n1rkz6OhWjVgpr2wiIq5MEREAREQBeBcvqd9h3WPtLpI4lLXB73XqF4wC+a914z2PWERF4dHhVVDY2OkebNY1z3HgGtBJPoFynpRjslbVSVMt/bPsNP1GD3Ix2HqSTxXRmsmUtwusI4wuHk6zT8iVy6tLo+Kw5dxXrvZH0xpJAAJJIAAFyScgABvK31RoViTIvGfRTBlrk7N3AcywHbb1uMlLdQ2HRSVkssgBfBGDGDwL3bLnjqALX+Mq/FJcXbpz4UjynSUllnG6luq/SN1FXRkn6KctimHCzjZkndrje/Iu5r91r4fFBic7IQA12xIWjc1z2hzhbhc+1+JQ9xyPZWVirDXZr1/BFrGR2Uix6J5dGxzt5a0nuQLrIWAXgiIgCIiAIiIDDxKhZPE+GQXa8WPTkR1BsR2VI4rhT4JXwv3sNr8CN4cOhFir6UK1i4TtsbUNHtR2Y7q0nI+Tj/AHFavRN06VT4b2l68vHbwM/pC3+JDjW8fTn4blbUcr4pGSxmz2ODmnqOB6HcRyKvHCq5s8TJmbntBtyPFp6g3HkqW8JTzVtXZSU7ju9tnY2Dh67J8ytDpekqlL4i3j6P8b+JU6OqcE+Dk/X/AFp4E6REXzRthERAEREBgVMntdsl57Sx3SXJPNelNm4Dr+manxhFTiyzaRtsAF9oigLYREQGu0gw0VNNPTk28aN8d+Rc0gO8jY+S5MqIHRvdHI0texxY9p3hzSQ5p7EFdiKqNa2rp9Q41tC281vpYhYeJYWEjPjAyI+sALZj2rtnWVOTjLZ+pFVg5LKKi0ax6ahqG1FORtNuCHZte02uxw5GwPcA8FZtRrxPhfR0QEpG90t4wedg0Od2y7qn3tIJBBBBIIIsQRkQQdxvwXytGpQpzeZIrqpKOhlYlXyTyvnmdtSSuLnuPEnpwAFgBwAAWMV70FFLNI2KCN0kjsmtYLk/4HU5BbrSXQuuoQHVMNmED6Rh24wT9Vzh7pvlnvO6674oxajz5I54W9SUaIa26mn2Y60GoiGQdkJmjucpPxWPxK5tHtJKWtj8Slla8D3m7ns6PYc2/oeF1yesihrZIXiWGR0b27nMJa4eY4dOKrVrOE9Y6Py8CWFZrc7BWNXVscLDJNI2Njd7nuDWjuSqY0c10SMjLK6HxXtadiSPZYXOAyEjdwud7m/lUA0n0nqa+XxKmS4B9iMXEcY5Mbz+I5nmqcLKbliWi9ewldaKWUXVimuHDoiWxCacjjGwNb6yFpPcArWM14U1/apJwOjoyfQkKjkVxWVFdfiQ/HkdL4DrKw6qIY2bwnnIMnHhkk8A65YT0BupkuNyp9q91kTUbmw1LnS0psLH2nxfFGd5aOLOmVtxgq2OFmn4EkK2dJHRS8KunEjHRu3PaWnzFl+01Q2RjZI3BzHgOa5puHNIuHA8QQvZZyeGTtFNT0pY5zHb2ktPcGxWbo/P4NTE/htBrvuu9k37Xv5Lb6W0mzUuI3PDXfsfm2/mtKYl9TGoq1PL/wAl6rUwHB0p6cmW2ixcPm24mP8AtNaT3Iz+ayl8u008M3086oIiLwBeNS6zHHoV7LExM2id5fqF7HdHM3iLZp9tZmFG7z0H+FqttbTAnXL+w/dWZrEWZ9CWZpG4REVU0giIgCxcTqxDDJM7dEx7z2a0uP6LKUO1s1/g4VUkb5A2If8Ase1rv7S70XUI8UlHrPG8I5pfIXEucbucSXHmTmT6qT6tcCjrcQihmbtRWe+Rt3Nu1rTYXaQR7ZZuUWVs/wCn2hvPVTkfy42Rg/8AyOLnD/62+q27ifDTk0U6azIt7B8DpqVuzTQRxA79hoBP3nb3eazpGBwIcAQRYg5gg7wQvRFhN53LpWOl+qGmnvJREU8u/Yt9A48tkZx/hy+FUzpBo7VUT/Dq4XRk+67ex/Vjxk7tvHEBdaKP6dFgw+rdJG14ZDK4NeA5u0GEtNj8VlcoXc4tReq8yKdJPU5XX4v0KdamMGbUYi10guymYZrHcXgtbHfsXFw6sC1ak1CLk+RVjHieDe6IanXysbLiL3Rh1iIY7eJb/wAjnAhp+EC/UHJS2o1O4Y5tm+Ow/abJc+jwR8lYiLGldVZPPFjsLipxSxg5n071f1GHEPv4tO42bKBYtJ3Nkb9U8juPQ5KHLrvF8OjqIXwTC7JWljh3G8ciDmDwIC5Kq6Z0cj4ne9G9zHd2OLT8wtC0rurF8W6K9Wnw7Fx6iNJC5smHyuv4Y8WC/wBgkCSPsHEOH33cArgXMGq+rMWK0hB955jPUSMc23qQfJdPqlewUauVz1J6UsxIvpnBcxu+8D8iP3UZ8JTPShl42/e/4n/CjPhq7aT/AIl3+pQuYfyMlejTr07By2h/cf2W2Wm0Z/kkcnn9GlblZlf/AJZdpfpP5F2BERREgWFjH8l/l/uCzViYm28Un3SfTNdR/sjip/R9j9CKba3Ojjs39m/uo54i3GjMv0rhzB+RH/6rlWPyMyLaf8sffJkoREVE2giIgCqb/UFXWp6aC+ckrpD2jZs5+co9Fasjw0EuIAGZJNgOpK581141HUVrGwyMkjhiDdpjg5u25zi8XabXsGKzaR4qq+mpHVeIsr5X/qJodjDnSnfPM9w+6wNjA/Mx3qqAJXU+gOH+Bh1JFaxELHOHJzx4j/7nFXb+WKaXW/QhoLXJIURQzSfWTQUd2+J40oy8OGzrHk5/ut7Xv0WXGEpPEVkstpbkzUH1m6RUcVHU08s7RNLDIxkY9p5c5p2btbm0X4mwVU6Ta1K+qu2Jwp4j9WEnbI+KU5/l2fNQYm5JOZJuSd5J3kniVfpWLynN9y/P+yGVZcj8Vh6jsTbFiBiebCoicxv32kPaL/dD/OyrxfcMrmOa9ji1zSHNcMi1wNw4HgQRdX6sOODj1leD4Xk7FRVRohrggexseI3ikFh4rWl0b/iLWglh55EcbjcJXUaxsKY3aNbGejNp7vytBKxJUKkXhxZdU4tZySStqmRRvlkcGsja57ydwa0EknyC5HxCq8WWWYixlkfIRy23F1vmp3rG1lurmmmpmujp7+2Xe/LY3AIHusvnbecr23Ku1pWdB003LdletNPREm1a0xkxSjaOEu2ezGuef9q6jVKahNHiXy17x7LQYYb8XGxkeOwAbf4nDgrrVS9nmphciWksRNRpCLsaPi/YrQ+GpBjmeyO5/Ranw1JQlimivWWZs2+j7bRH7x/QLaLCwlloh1JPzWaqdV5m2WqaxBBERRnYXw9lwQeIsvtEBW8hLSWne0kHuMlm4JVbM8Z4E2Pnl+pXnpPD4dQ/k+zh57/mCtV4nIrUS449p8tKTo1cf+X6PT7FqIsTDqoSxMkH1gCe+4j1ustZjWD6hNSWVswo3ptpXDh1P4sg2nuu2KMGxe63P6rRvLuHUkAyRcy608ddV4jNn9HA4wRjgAw2ee5ftG/LZ5Ke2o/Fnh7I5qS4Vk1mk2lVXXPLqmUlt7tjbcRN+6y9r9Tc9Vo19NBJsASTkAMyTyA4qxMN1O4hLF4j3wwuIu2N5cXdn7LSG+V1rynTpRSeEipiUyuSFbWBa53x02xUweLOywY9haxjhbfIPqkfCCDyCrjSDA56KYwVTNh4Fxndrmm9nsdxabH0INiLLWrydOFVLOq5BSlB6Eo0n0+r627ZZtiI/wBKK7GEcnZ7T+ziR0UXC/WNJIa0EkmwAFyTyAG8qfaM6p66ps+cCljOd5BeUjpEMx+ItPRet06MeSXvxPcSmyAEqWaM6usQrbObF4UR/qTXYCObW22n9CBbqrs0Z1eUNFZzIvFlH9Waz3A82i2yz8IB6lTBUal/yprvf4JY0Osqd+panFK9jZ3uqiAWyu9mMOH1fDF7NO65JI3jkacxjCpqWV0FTGY5G7weI4OadzmngQuu1qsewCmrI/DqomyN4Xyc082uGbT2UVK9nF/PqvfvB3OknsclorrxXUhETelq3sH2ZWCTyDmlpA7grWM1H1F/arIgOYjeT6bQV5XdFr+3k/wQfBkVOpXoJoRPiMosCynafpJSMurI75Of8hvPAG1MB1OUUJDql76lw4H6OP8AI03PYkjorEp4GRtDI2tYxos1rQGtAG4ADIBQVr5JYp+JJCjzZ4YVh8dPEyCFobHG0NaBwA58yd5PEkrNRfl1mFg1WI5v7AD9/wB1ibCy3i5J5r9iiu4BW1LCwVWsvJsIG2a0cgF6oiqZLSWAiIgCIiAi+m1JeNso3xmzvuutn5G3qVCPEVsVMLXscxwu14IPYiyqXEad0Mj4n+8w278j5i3qtC0nmPC+XofOdMUuCoqq2lo+1flbdhMNBsR96Bx+Jn/Jv6FTFU3SVro3tkYfaYbj/B6EZeatjDa5k8bZWbnDdxB4tPUFRXdLhlxLn6lzoi7VSn8J7x9P1t4GYuQcWBE8wdvEsl++26/zXXy5s1t6PupcQkeB9FVEzRnhdxvK3uHkm3J7VJYSSm11o0a6zE1WgEkTcSpHTW2BM3fuDsxGT2fsG/RdULjcqaYXrSxOGIRCVkgAs10rNt4HAbVxtd3XKsXVvKq04kdKoorDJd/qEkjvRt/qjxT1EZ2Bn3cMvuuVOrLxXE5qmV01RI6SR29zrcNwAGTQOQsF40tM+V7Y4mlz5HBrGjeXONgPVT0afw4KLe359DicuKWUX5qUwqFuHx1HgsE0jpQZNkbZa2RzQNreBlaw5Kx1qtGcIFJSQUwN/CY1pI+s7e93m4k+a2qxKk+Obl1tlxLCwERFwehERAEREAREQBeNQ7K3Ney8HZr1Hj2MbYXvSx8U2V7tFgu5S0OVHU+kRFGdhERAEREAUP07wbbYJ2D2oxZ1uLefl+hPJTBfJF8juK7pzcJKSIbihGvTdOXPy+vcUit/ohjv8PJsSH6KQ5/DwDv27dk0twI08m0wfRSE2+E79g/93ditAtf5asPo/fkfFr4tnX6pRfc/0/eu13NIIuMwVpdK9G4K+nME46sePejdwe3/ABxBIUZ0Q0n8O0FQfY3Mefq9D06/tusAG+YWVUpzoz9GfY2t1TuafHHvXV75PmcwaVaB1tC4mSIyRC9pogXMtzfbOM9HZcid6i4I5hdkrBlwmncdp9PE483RsJ9SFbh0g0vmj5nToLkzlPB8HqKp+xSwvld8AuB953utHUkK9dW2rhtCf4mqLX1JFm2zZCCLENJ955GRdyyHEmwY4w0WaAANwAAHoF6KKtdyqLhSwvfvY7hSUXkIiKoSBERAEREAREQGg0u0ngw+AzTkkk7MbG22pHfZHIcSeHoDSOMa2sTmcTFI2nZwbGxjjb4nyAkntbsmunFXTYm+Ik7FM1kbBwu5rZHO7kuA/CFBFrW1tBQUpLLZWqVHnCJ/gutzEonDx3MqGXza9rWOt8L4wLHuHK7tFtIIK6BtRATY5OafeY4Wuxw55juCDxXKSsfUVijo690F/YqI3XHxx+0135dsea8uraHA5RWGtRTqNvDL/DV9IiyiyEREAREQBERAEREBi1tIyVjo5BdrhY/sRyIVXY/gj6WSzs2H3H8COR5Eclbaxa6jjmYWStDmn/tweB6qejWdN/Qz7+wjdR6pLZ/Z/T0KZUi0b0pfBaOS74vmztzH/cl5aR6NyUx2hd8ZOTuXIO5HruPyWiWn8lWHWj5VOvZ1ucZLzX3T967XNRVsczA+Jwc08Rw6EbwehWUqWoK6WF23C8tPG249HDcR3U2wrTmN1m1Ddg/aFyPMbx81Qq2k46x1XmfRWnTFKqsVflfk+/l2PxZM0WPS1LJG7Ubw4cwQf0WQqhsLVZCIiAIiIAiLxnmaxpc9wa0by4gAeZQHsi8oZWvaHMILXAEEbiDuIXqgOdddeEuhxJ0xB2KprXtPDaY1sb2dxstP4woCurtJ9HYK6AwVDbje1wyex3B7DwPyO4qmMX1N18bj/DuinZwO14b/AMTXZDyJWrbXUOBRk8NFarSecorhWVqJwh0lc+pt9HTxuF//ACSZBo5+ztk8suaYJqarZHD+KfHBHxsfEk7AD2fMnLkVdGj2BwUUDaembssbmSc3Ocd73ni4/wCALAALy6uocDjF5bFKk08s2yIiyyyEREAREQBERAEREAREQHw9gIIIBByIOYI5FQ7H9DA+76Yhp3lh3HseHY5dlNEXcKkoPMSC4tqVxHhqLPquxlKVVM+NxZI0tcOBFj36jqvBXPW0MczdmVjXjqN3UHeD1CimJ6CNNzTv2fhfmPJwzHmCtCleQf8AbT0PnLjoWtDWk+JeD/D8e4g8E7mHaY4h3MEg+oW8otMqqPJzxIPiA/UZ+qw63R6qj9+E2+0DtN73F7edlqla4adVa4fmZ0ate1eE5R+mq8nuTeDWCf6lP5h/7Efus1un0HGOQdtk/uFXi/FG7Oi+XmXIdL3cd5J9qX2wWK7T2m4Mk8w0fusKfWEP6dOT1L7fIBQVfi6jZUVy82dS6XupbNLsS++SSVmnFU/JhbGPhFz6m60FZVySnalkLz1JNu193kvIrOocFqJv5ULnA8bWHq6wViMKdJZSS+v73Kkq1e4fC25fTV+X6Jxq6xHbgMLj7UJy+665Hob/ACUwUM0U0Wlp5fGfIPdILBc3BtkSbWsQDlfcpmsS6cHVbg8p+vM+ssFUVCMaiw1p3LbyCIirlwIiIAiIgCIiAIiIAiIgCIiAIiIAiIgCIiALEqKCKT+ZG13UgX9Vlomx40msM0E2iNG7+jbs5/6XssV2g1Kd22Oxb+4KlKKVV6q2k/ErOytnvTj4Iio0EpeJkPdw/YLIj0MohviLvvPf+xCkSL3/AOiq/wDJ+IVjbL/rj4L8GDTYVBHnHExp5gC/rvWciKJtvcspKKwtAiIvD0IiIAiIgCIiAIiIAiIgCIiAIiIAiIgCIiAIiIAiIgCIiAIiIAiIgCIiAIiIAiIgCIiAIiIAiIgP/9k=;" vertex="1" parent="E2yFMoDqiKqBGXm1PeEA-1">
                    <mxGeometry x="-300" y="72.5" width="65" height="65" as="geometry"/>
                </mxCell>
                <mxCell id="162" value="" style="shape=image;verticalLabelPosition=bottom;labelBackgroundColor=default;verticalAlign=top;aspect=fixed;imageAspect=0;image=data:image/jpeg,/9j/4AAQSkZJRgABAQAAAQABAAD/2wCEAAkGBwgHBgkIBwgKCgkLDRYPDQwMDRsUFRAWIB0iIiAdHx8kKDQsJCYxJx8fLT0tMTU3Ojo6Iys/RD84QzQ5OjcBCgoKDQwNGg8PGjclHyU3Nzc3Nzc3Nzc3Nzc3Nzc3Nzc3Nzc3Nzc3Nzc3Nzc3Nzc3Nzc3Nzc3Nzc3Nzc3Nzc3N//AABEIAMAAzAMBEQACEQEDEQH/xAAbAAEAAgMBAQAAAAAAAAAAAAAABQYBBAcDAv/EAEQQAAEDAwEEBQkDCQgDAAAAAAEAAgMEBREhBhIxQRNRYXGRFCIyUoGhscHRI0LhFSQzQ1NicqLCBzRjc4KS8PEWstL/xAAaAQEAAgMBAAAAAAAAAAAAAAAABQYBAwQC/8QAOREAAQMCBAIIBAUEAgMAAAAAAAECAwQRBRIhMUFREyIyYYGRsdFxocHwFTNCUuEGFCNiQ1MWJDT/2gAMAwEAAhEDEQA/AO4oAgCAIAgCAIAgCAIAgPKeeOnhkmlduxxglzjyCw5yNS6npjVe5Gt3U5NfrtLd7g+d7iIm5ELOTW/UqvTzLK/N5Fzo6VtNFlTddyNWk6ggLfsHfDTzttdU4mKQ/YOP3Her3FSNBUK1eid4exCYtRZm9O3dN/c6ACCpcrZlAEAQBAEAQBAEAQBAEAQBAEAQBAEAQBAY3ggKf/aFcTDRQ0MZ1qSXP/gH4kKOxCRUYjE4kzg0COkdKv6fUoCiCzBAEBlrnMc18Zw9pDmkciOHvS9tUFkdoqXQ6fbdrLVUQRmorI4Jy0dIyTLAHY11OnFTkdbE5EzOspUJsMqWPXKxVQm4aiKdgfDI2RpGQWkEFdTXI5LocLmuYtnJY+97sXo8gyNaCXHAHWg3I2faKzwPLJbjThw4tD8keC0OqYWrZXIdTKGpel0Yp6W+82+5PeyhqWzOYMuDQdAvUc0cmjVueZqWaBLyNshIBbTnCAIAgCAIAgMEoBvIYuYLscdO9LoZAcCdCD3LFwZ3uSAxvdiyCJvG0dutQLZ5N+b9jHq729XtXPNVRw9pTspaCapXqppzKbc9tLhVZbSAUsZ5jVyjZa57+zohO0+EQs1k6y/IrtRPNUP355pJX8cyOJXErlct1W5JsjYxLNS3wPNYPYQBAEAQH3BNLTv6SnkfE/1o3EFZRyt2U8vY16Wel07yfodsrrTN3JjHUtxgF4w4e0LrZXSt0XUjZsIp5Fu3qkVcrrXXOUvrKhz2nhGDho9i55JpJF6ynZT0sUDbMTx4mkAOrw0WuycDpJTZiuNvvdLLveZI7on9odp8cLfTP6OZq89DhxCHpqdyLw1Ott4KwlNMoAgCAIAgMHggKbtHthPQ101FRUzN+IhrpZDkZwDoB39ajaiucxysYm3EnKLCWyxtlkXReCe5VKq/XarJ6W4VAHqxO6Mfy4Ue+olfu5fBbEzHRU0fZYnjr6kc9znu3nuLnHi5xyStN77nUiImxgaHKBdTdpbvc6Qg09fUMA4NL95v+05HuWxs0rNnL9/E55KSCROsxPv4akjU7XXeopDT9LHG4+lNE3DiPl7FvdXTOblucrMJpmPz2v3LsQJ1OSSSdSSdfFcmu5JcLBAEAQBAEAQBAEAQBAEBhz3RjpGnBZ5w9iXtqhm19FO3xnMbT2KzoUBdz6WTAQBAEAQAoDkm1YI2kuAP7QeG61V6q/Pd4eiFzw7/AOSPx9VIpaDsCAIAgCAIAgHwQGxR0NXXP3KOmmmdz3GaDvPAL2yN7+wlzVLPFEl3uRPiTtJsRdpgDOYKYHk5++7wGnvXUygmd2rIR8mM0zezdfl9+RJQ7ANA/OLi4n/Di3fiSt7cN/c7yQ5H47+xnmpsDYChx51dWZ7Nz/5Xv8OZ+5fl7Gv8cm4MT5+55y7AU+Psq+cHlvsafgAvK4c3g5TKY6/9TEI6q2EuEQzTVVPP2OBjPzWl2HyJq1b/ACOqPG4HaPaqfMga+1XC35NbRyxN9Yjeb/uGQuR8MjO0ip98ySiqYZvy3ovr5LqafctZvCAyN3I3xloI3gOY5ppxC3VOrudittwp7hRR1NJIHxOGnYeoqyxSNkajmlFnhfC9WPTU3AcjK9moygCAIAgMHggOXbcw9DtJO79tGyT3bv8ASoKublnXvsW3CH5qRE5X9/qQK5CSCAIAgCAIDZt1vqrlUdBRxF7+Z5NHaeS9xxukdlYhqmnjgbmkWxe7NsXR0oElefKZeO7wYPZzUtDQsZq/VSt1OLyy9WPqp8y0RwxxsDI2NYwDAa0YAXciImxFK5XLdV1PstBWTzZAAAhkYQDCAYCAwWAgg6g6YKWBXrxslbq7L4WeTTHPnR+iT2tXHLRRv1RLKSdNis8WjlzJ3+5Q7zZK2zyAVLMxE4bK30T9ComanfD2tuZYaWthqU6i68iOWk6yX2avclnrQ4kuppNJmA/zDtXRTTrC+67HDX0iVMf+ybHVIZmTRMkieHMeAWuHMFT6LdLoU9zVaqtXdD0HALJgygCAIDDuBQFH/tHozu0la0E4Jif3HUfA+Ki8RZs9CfwOa2eJfj7lIUWWAIAgCAICRsdonvNX0EJ3GNwZJSMhg+vUFuggdM6yHLV1TKZmZ3gnM6la7ZS2ylbBSR7rRxPNx6yVPRxNjblaVCeoknfnepuYC2GkygCAIAgCAIAgMEAoDyqIIp4nxTRtkjeMOa4ZBHasK1HJZTLHuY67Vspz3afZR9v3qu37z6Ti9mcmL6j4KHqaNY+uzYs1BiiTWjl0d6lXXATBdtgbwSXWud/LegJ97fmPb1KUoJ/+JxX8YpLWnb4+5ehwUoQAQBAEAOqAj77b23K1T0ugc5vmHqcNQtM8SSxqw6KSfoJmv5HInRujeWSNLXtJBaeWFW9UXUuqORyXTYxupc9DdS4G6lwetNTSVVRHTwNDpJHBrQvTWq9crdzxJI2NqucuiHWLHaobTb46aIAu4yPxq93WrFDCkTMqFLqql1TIr1JFbjnCAIAgCAIAgCAIAgGEB8PaCCMaHigvbY51tjs8bdL5dSMHkkh89o/VO+h9yhKymWNc7Niz4ZX9K3opF6ybd6e5XaaaWlnjngOJo3B7O8fXh7VxNdlVFTgSkjEkYrF2VDsFvq2V1FDVRHzJWBw7OxWWORJGI5OJSJolikVjuBtL2awgCAIDDuCA59t3bYqatjrIi0eUZ3mDrHP3qExGJrHo9OJZMIqXPj6N36dl7uRV8KOuTFxhLi4wM6oqi5dNgbXutkuMrdTmOLu5n5KXw2HeVSv4zU3VIW8NV+JdW8FKkGZQBAEBq1tbT0MJmqpmxsHNx49y8SSNjbmctkNkUT5XZWJdSp3HbdwLmWyn3v8AFmOnsA/BRkuJptGnipMwYNxmXwT3IKo2lvU5JdXPjB+7G0NA+fvXE6tnd+r6EkzD6VmiNv8AHU1vyxdc5/KNXn/OK8f3M3718zd/aU37E8jYh2lvULgRcJHgfdkY1w+GfevTa2oT9XmaX4fSO/RbzJmi25na4Nr6VrxzfCce4/VdbMTcnbb5ff1OCXBmL+W7z9/4LTbLzQ3No8lnBfzY7Rw9ikoqmOVOqpDz0k0C9dPEkQt5zmcBAeNRDHPFJFK0OZICHNPMYXlzUcll2PTXKxyOTdDld8tjrTcX07smP0ondbfryVcqYVhkycC4UdUlRFn48S1/2f1ZkoJ6Nx1hfvN15H8VJYZJdit5ENjUWWRsicfoW9SZDBAEAQGHcFhQc524qfKL10Q9GnYG+06lQOJSZprciz4RFkp78yv4UfclBhLg+o4nyysiibmSRwYzvJwF6aiuVGpx0PL3Na1XO2TXyOu2+ljoqKGli9CJgaD145q1RsRjEa3ZClSyOker3bqbC9msIAgIi/XmGz0nSPHSTO0ii5uPWeoDmVy1NS2nbdd+CHXSUj6l9k0RN1Oc3GuqbjP01ZJvu5DgG9gCr8sz5XZnqWqCnZC3KxP5NXC1XNwwlwMJcDCXAwlwZa50bhJG8te30SDghZRyot0XUw5EVLOTQuGz21h3mU12cNcBtQP6vqpalxG65JfMgq3CrIskHinsXRhBbkEEHgQVMaLsQVraH0gK/tjbvLrW+RjczU/2je0feHh8Fw18KyRKrd0JHDKjopsq7O09ir7Dz9DfAz7s0Zae8ahR2HPtNZNlQl8WZmp83JTpCnyrhAEAQGHEAHPALAOS3KY1NwqJjxfI4nxVUmdmlc7vLnA3JE1vca2FqNwwgJrZClFTfYS4ebADKe/gPec+xduHsz1Cd2pH4pJkplTnodJHBWNCrGVkBAa9bUx0lNJUTHdZGCSvEkjY2q52yHuON0j0Y3dTltzrZrjWyVMx9L0R6o5AKrzzOler1LfTwtgYjGmqdBk8lpN5OWjZatrwJJvzeA6hzh5zu4fVd9PQSy6u0QjanE4oVyt1UscGxltY0dKZ5Xc8vwPAKSZhsKb3XxIt+LVC9myeB6SbIWl2jY5WHra8rK4dAvD5mG4rUpx+REV+xM0bS6gqRIRruSjBPtXHLhbk1Y47YsYaukjSsVNLPSTGKqidFJjJa5Rkkb41s9LEvHKyVuZi3Q8sLwexjkmmyi5atkb4YZG2+seTG44he77p6u5SuH1mVeievwIXEqHMizRpbmXlp0U4QBgjOeaxuDncNKLVtjFCBhjZ8xj91wOPDOPYq82Poa3LwRfUs7penoFdxVPQ6MrEVgIAgMZGOKwCJvV4pLfA9ksv2rmkCNurvauWpqooUs5dTrpaSWZyK1NDmo1A3uPNVZNi26DCzcDCXBbdgYR0lZMeprPiT8lMYS3Vz/ghB4y/RjfiXMKbIMygCAqO3laWxQ0LD+kPSP7hwHj8FD4tNZEiTjqpM4RDdzpV4aIUzHJQlyfLZsnYWyNZcKxm8BrDGdR/EfkpnD6NHIk0ngQeJVyoqwsX4lzAKmrWII+kMhAYKA0rjbae5U5hqo94fdcOLT1grVNAyVuV6G6Cd8Ds0anOrvap7VVdFPqx36OQcHj6qs1NM+ndlXbgpaaaqZUtzN35Gjhc9zpGO0jtHFLmDouy10Nxt2JTmog8x59Ycne36qyUFSs8Wu6FWxCmSCbTsqTgXecJX7zZpqy9UNbABuxuxLk40ByO/mo+opXSTskbw3+hI01Y2KB8TuOxYFIEcEBgkYKAq20e0fk7nUluIMv35eIb2DtURW4hkXo49+ZLUOH50SSVNORTH7z3l73Oc46kuOSSoFXKqqq7k81Ealk2MYS56uMJcXG6lwXXYJo8iqzzM2P5Qp7B/wApy9/0QgMYX/I1O76lpUuRAQBAc62wkMt/mHKJrWAezP8AUqxiT1dUuTlZPr9Sz4a1G0yLzuR9vpDW3CnpR+skAJ7OJ9y5oI1llbGnE6Z5eiidJyQ6jFGImBjGgNaMADkFb0RESyFQVVVbqeiyYCAIAgCAjL/bWXKgfHgdK3zo3dTly1lOk8St48DqpKhYJUdw4nNSxzSWuGHDQhVRbpoWtHIqXMYS5m5M7KVhpLvG0+hMOjd8veu7DpljnROC6HBiMPSwLbdNTog4KzlYMoAgCAru1N4NDB5NTOxUStyXeo3r7yovEqzoWZGL1lJLD6XpX53bIUbHvOqrd9blh7jOEuZGEuBhLgYS4LfsLJ9hVxjjvh3iMfJT2DO6jk7yDxdOs1e4tQU0Q5lAEBznagY2grM8y3/0aqpiOlU/w9ELRQL/AOszx9VPbY+Nrr3GXalsbnD4fNbcKRHVWvBF9jXiblSm04qh0BWYrYQBAEAQBAYPFY7wc62mphT3mdrR5ryHj2qq4hH0dQ5E46looJM8Db8NCLwuK52GWOMT2yN4tcHBZR+VcycDCpmRUU6rTydLBHJ67QfFXVi3ailOcmVyoei9HkIDxqallPTyTyaMY0krXJI1jVc7ZD0xivcjU4nNK2okrKqSolOXvOe7/gVNmmdNIr3cS2QxNiYjG8DwwtVzZcYS4uMJcXGEuLjCXFye2NnEV0fETpNHp3jX6qVwiS06s5p6EbijM0SO5KXlvBWYr5lAEBSttaVza+KpDfNlZuE/vD8D7lXcYjyypJwVLeKE9hUqLGrOKehGWGobRXWllccMJLHHsOnxXDQSpFUNcu2x11jFkgc1Nzo+deCt9yrGVkBAEAQBAfLuSwoKTtoB+VIiOcIz4lVvGF/zt+BYMJX/AAL8Sv4UTckrjdz3YS5k6VY3l9no3HiYgrlRuV1OxV5IVSrS070Tmby6TnCAi7/STVlskhpz52hx6wHJcVfC+aBzGbnVRytimR7jn7mFpLXAhwOCCNQqgqKi2UsqLpcxhYuehhLgYS4GEuBhLg9qOZ1LVRVDB50Tg7vHMLbDKsMiSJw+1+RrlYkjFYvE6VTysmhZJGcseA5p6wVdWORzUc3ZSpuarVVq7oeq9mAgI680AuNFJD97iwnk4Llq6dJ4lZx4G+mmWGRHeZz6WJ8Mropmlr2nBbjgVTnNVrla7h6loa9HpmaXHZy9MqY2UtS7FQ0YaT+s/FWTDq9JUSJ/a9SBrqNY1WRidX0J/e1UuRxknAysKtgYLsLNwZBygMoD5dyQFD2qk6W8yAHIY0N92qqeKvzVS9xY8OblgTvInCjjuAGiXMXOg2CRv5GpA0g7sYB14K40Kp/bMtyKxWIv9w6/Mk12HMEBjCxa2oIS+WKOvHTQYjqcceT+9Rtdhzajrt0cd1JWOh6q9kp9VSy0spinjcx45Hn3KsSxPhdleliejlbI3M1bnljxWq57unAYQXGEFxhBcY17EuC1bJ3IGLyCQ+c3JjyeI5hWPB6rM3oHbpsQuJQKjulTxLMOCnCKMoDGNcrAIe92WK4t6RhDKho0djQ9hUfW0DapMyaOOylrHQdVdWlPq6CpoXhtTG5v7w4d4KrM9NNTr10t3/yTsU8cqXYt/vkSFDtDXUoa15FRGOT/AEvFdcGKzx6O6yd+/mc0uHwyLdOqpIf+Wv3f7kN7/M0+C7PxxbdjX4/wc34Wn7vka8N0vF1qWik+yjDtdxug7yeK1x1tbVSJ0WiffE9vpqanaufVS3Mzpk8lY0vxIXifayDxqpmU8D5pDhrAXFeJHoxiudsh6YxXuRqbqc3qJDPPJM7i9xcqNLJ0j1evEtcaI1qNTgfGF4PVxhASFluTrbVAnLoZCOkZ8x2rtoax1NJ/qu6fVDkq6dJ2d6F+Y8OY1zSCCMgjgVcUddLoVtUtofayAgMYQGvV0VPVxdHPEHjlnktM8EUzbSJc2RSviW7FsVut2WkZl1FIHj1JDgjuPP3KBnwVzbrA66clJSLE2rpInkQ09vq6ckTU8jO3dyPEKJlpZ4l67VT5kgyojfs5DXx4rQum5tuMILjCC59RPfFK2SJ269hyD1FemSOjcj2LqhhzUe1WqXmzXWO4U+dGys0ezmO3uVxoq1lTHdN03QrdTTugdrsSQOQu45zKAxgLFgfL4mPbuvaHNxjBGVhzUcllQyiqi3Q0JrDbJTl1K0H9wlvwXE/DKR63VnldPQ6W1s7UsjvqfMWz1rjORTB38bi74o3C6Rq3yfUy6unclsxIxxMjYGRtDWjgAMLta1rUs1LHKqq5brqfWF6sYBOEBWNq7jvfmEJycb0p6uoKvYxWp+Q3x9iWw6BfzXeBWcduVXrkuMLIuMILjGmEvxBcdlaoz28wvPnQux7OSteDz9JT5V/Tp7EDiEWSXMnEnVLHAEAQBAY3QgMFoAWFQFa2ot2grYm8NJAOrrVfxmj06dqfElcPqP8AjVfgVvdVcUl7jCXFzOEuYPSmnlpZmzQuLHtOh5dxW2Gd8L+kj3Q8PjbI1WuLfab1FWtbG8tjnHFvrdytlFicdSmVdHciDqKR8OqaoSoPDKkzjPpAEAQBAEBgnCAh73eW0TDFCWvqDy5N7SonEcSbTtVjNXeh20tG6Vcy9kpzsucXOJc4kuc48z1qpucquuu5PaIlk2MYXm5kYS4uMJcXDWkkNAJcTgAakrKXVbIYVbJfgWvZu3T0gkmnG6JGjDOY71aMJo5YEV8ml+BC19QyVUa3gWBTZHBAEAQBAEB8SMa5ha4ZaRgg815c1HIqKmhlFVF0KVeLY6gqDugmF+rHdXYqZiNEtLJdOyuxP0tSkrdd0I/CjtTquMLFzNxhLmDOOHYl1GhL0F+qqYBk+Jox63pePNTNLjM0XVk6yfP+fvU4JqGN+rdF+ROUt7o6gY6To3+q/RTtPilNNojrLyXQjpKOVnC/wJBsjXeg4O7jlSCORdjmVFTdD6yUPILlkyatTcaWmH2s7QeoHJXLNWQQpd7kQ3Mp5ZOyhA3HaGWYGKjHRNOnSO4qArMadImWDROfH+PUkoMPRvWfqQXHzi4uJ4k8c96grquqqSKW4GN1YuZGEuZubVtoXV9S2Fug4vd1BdlFSvqpcibcTRUTpCzMT8ezVKMF8sruwEAfBWBuB099XKpFriUq7IhKUdupKQZgha13rHU+JUjT0cEH5bbevmcss8kvbU2sBdRpMoAgCAIAgCAYygIraR7I7XJvNBLyGtz1qLxh7WUjr8dDromq6ZLFQxzVLuTpjCxcDCXAwlwZwlwMLN9LAyxz2fo3Ob/CSF6ZI5nZVUMKiLuh7tratow2okH+pbkrKhNpFNawxL+lD4fUVD/TnkP+ory+pmd2nr5npI2Jsh47uuea0X4nsbuFnMDOEuDGFi4PSCCSeZkcTS5zjjAWyON8rkYxLqp4e9GJmUudqt8dDTBjcOedXu6yrzRUjaWLIm/EgaidZn3U3cBdhoMoAgCAIAgCAIAgCAgdrD9jTN/fLvAfiq9/ULv8TGc1+hI4d2nL3FcxoFVbkrcYS4uMJcXGEuLjCXFxhLi4wlxcYS4uMJcXGEuLjCXFxhLi57UtLLVSiOFm8fcF0U1PJUvyRpc1yTNjS7i1Wu2xUMeR50pHnPPyVyoMPjpG6au5kLPUOmXuJBugUic5lAEAQBAEAQBAEAQBAQW1Tfs6Z3U4jx/6Vc/qJOpG7vX0JHD16zkK9hVW9tCTQYS5kYS4GEuAWkcQRnrWVum6GLjCxcyMJcDCXAwlwMJcDCXAwlzFye2Xj0qHdwVo/p1q2e5e4jcQXsoT4VlI0ygCAIAgCAIAgCAIAgCAjNoIult7iBrGd8f87iojG4ekpFX9q3OqjfllROZVwBy4Kj3uTPeMLAubNNQVVSR0UTt0/ecMBd1NQVVR+W3TmuiefsaZKiNm6kzQ2SOIh9R9o8cB90KyUeCRxdabrL8iPmrXP0ZohJS00Mrd2SJju9qmJII5EyvaiocrZHtW7VNKWyUknBjo/wCEqOkwSkfslvgdDa2Vvea7tno/uzyDvAXGv9ORfpeptTEHcWnwdntP7x/Itf8A44n/AGfI9fiH+pE1dM+lndHICCDoeRHWoCqpn00ixvT+TtjlbI3Mh44XMbBhAMdaXBbLLT+TUEbT6TvPPtV9wmn6Clai7rqvj/BCVUnSSqpvqSOcIAgCAIAgP//Z;" vertex="1" parent="E2yFMoDqiKqBGXm1PeEA-1">
                    <mxGeometry x="635.62" y="921" width="74.38" height="70" as="geometry"/>
                </mxCell>
                <mxCell id="163" value="" style="rounded=0;orthogonalLoop=1;jettySize=auto;html=1;endArrow=none;endFill=1;strokeWidth=1;fontColor=#000000;startArrow=classicThin;startFill=1;exitX=0;exitY=0.25;exitDx=0;exitDy=0;entryX=1;entryY=0.5;entryDx=0;entryDy=0;" edge="1" parent="E2yFMoDqiKqBGXm1PeEA-1" source="54" target="57">
                    <mxGeometry relative="1" as="geometry">
                        <mxPoint x="1040" y="102.5" as="sourcePoint"/>
                        <mxPoint x="770" y="100" as="targetPoint"/>
                        <Array as="points"/>
                    </mxGeometry>
                </mxCell>
                <mxCell id="57" value="&lt;span style=&quot;font-family: Helvetica; font-size: 11px; font-style: normal; font-variant-ligatures: normal; font-variant-caps: normal; font-weight: 400; letter-spacing: normal; orphans: 2; text-align: center; text-indent: 0px; text-transform: none; widows: 2; word-spacing: 0px; -webkit-text-stroke-width: 0px; background-color: rgb(24, 20, 29); text-decoration-thickness: initial; text-decoration-style: initial; text-decoration-color: initial; float: none; display: inline !important;&quot;&gt;JSON/HTTPs&lt;/span&gt;" style="text;whiteSpace=wrap;html=1;fontSize=15;fontFamily=Helvetica;fillColor=none;fontColor=#f1efef;" vertex="1" parent="E2yFMoDqiKqBGXm1PeEA-1">
                    <mxGeometry x="680" y="90" width="70" height="30" as="geometry"/>
                </mxCell>
                <mxCell id="164" value="&lt;span style=&quot;color: rgb(240, 240, 240); font-size: 12px; text-align: center; background-color: rgb(24, 20, 29);&quot;&gt;ELB&lt;/span&gt;" style="text;whiteSpace=wrap;html=1;fontSize=15;fontFamily=Helvetica;fontColor=#FFFFFF;" vertex="1" parent="E2yFMoDqiKqBGXm1PeEA-1">
                    <mxGeometry x="-570" y="458" width="70" height="40" as="geometry"/>
                </mxCell>
            </root>
        </mxGraphModel>
    </diagram>
</mxfile>